<svg width="537" height="525" viewBox="0 0 537 525" fill="none" xmlns="http://www.w3.org/2000/svg">
<rect x="210.5" y="0.5" width="133" height="57" rx="4.5" fill="white"/>
<path d="M249.053 22.0098C249.053 22.8457 248.912 23.5762 248.631 24.2012C248.35 24.8223 247.951 25.2969 247.436 25.625C246.92 25.9531 246.318 26.1172 245.631 26.1172C244.959 26.1172 244.363 25.9531 243.844 25.625C243.324 25.293 242.92 24.8223 242.631 24.2129C242.346 23.5996 242.199 22.8906 242.191 22.0859V21.4707C242.191 20.6504 242.334 19.9258 242.619 19.2969C242.904 18.668 243.307 18.1875 243.826 17.8555C244.35 17.5195 244.947 17.3516 245.619 17.3516C246.303 17.3516 246.904 17.5176 247.424 17.8496C247.947 18.1777 248.35 18.6562 248.631 19.2852C248.912 19.9102 249.053 20.6387 249.053 21.4707V22.0098ZM247.934 21.459C247.934 20.4473 247.73 19.6719 247.324 19.1328C246.918 18.5898 246.35 18.3184 245.619 18.3184C244.908 18.3184 244.348 18.5898 243.938 19.1328C243.531 19.6719 243.322 20.4219 243.311 21.3828V22.0098C243.311 22.9902 243.516 23.7617 243.926 24.3242C244.34 24.8828 244.908 25.1621 245.631 25.1621C246.357 25.1621 246.92 24.8984 247.318 24.3711C247.717 23.8398 247.922 23.0801 247.934 22.0918V21.459ZM255.926 22.9004C255.926 23.8652 255.705 24.6426 255.264 25.2324C254.822 25.8223 254.225 26.1172 253.471 26.1172C252.701 26.1172 252.096 25.873 251.654 25.3848V28.4375H250.57V19.6602H251.561L251.613 20.3633C252.055 19.8164 252.668 19.543 253.453 19.543C254.215 19.543 254.816 19.8301 255.258 20.4043C255.703 20.9785 255.926 21.7773 255.926 22.8008V22.9004ZM254.842 22.7773C254.842 22.0625 254.689 21.498 254.385 21.084C254.08 20.6699 253.662 20.4629 253.131 20.4629C252.475 20.4629 251.982 20.7539 251.654 21.3359V24.3652C251.979 24.9434 252.475 25.2324 253.143 25.2324C253.662 25.2324 254.074 25.0273 254.379 24.6172C254.688 24.2031 254.842 23.5898 254.842 22.7773ZM259.939 26.1172C259.08 26.1172 258.381 25.8359 257.842 25.2734C257.303 24.707 257.033 23.9512 257.033 23.0059V22.8066C257.033 22.1777 257.152 21.6172 257.391 21.125C257.633 20.6289 257.969 20.2422 258.398 19.9648C258.832 19.6836 259.301 19.543 259.805 19.543C260.629 19.543 261.27 19.8145 261.727 20.3574C262.184 20.9004 262.412 21.6777 262.412 22.6895V23.1406H258.117C258.133 23.7656 258.314 24.2715 258.662 24.6582C259.014 25.041 259.459 25.2324 259.998 25.2324C260.381 25.2324 260.705 25.1543 260.971 24.998C261.236 24.8418 261.469 24.6348 261.668 24.377L262.33 24.8926C261.799 25.709 261.002 26.1172 259.939 26.1172ZM259.805 20.4336C259.367 20.4336 259 20.5938 258.703 20.9141C258.406 21.2305 258.223 21.6758 258.152 22.25H261.328V22.168C261.297 21.6172 261.148 21.1914 260.883 20.8906C260.617 20.5859 260.258 20.4336 259.805 20.4336ZM264.697 19.6602L264.732 20.457C265.217 19.8477 265.85 19.543 266.631 19.543C267.971 19.543 268.646 20.2988 268.658 21.8105V26H267.574V21.8047C267.57 21.3477 267.465 21.0098 267.258 20.791C267.055 20.5723 266.736 20.4629 266.303 20.4629C265.951 20.4629 265.643 20.5566 265.377 20.7441C265.111 20.9316 264.904 21.1777 264.756 21.4824V26H263.672V19.6602H264.697ZM278.637 22.9004C278.637 23.8691 278.414 24.6484 277.969 25.2383C277.523 25.8242 276.926 26.1172 276.176 26.1172C275.375 26.1172 274.756 25.834 274.318 25.2676L274.266 26H273.27V17H274.354V20.3574C274.791 19.8145 275.395 19.543 276.164 19.543C276.934 19.543 277.537 19.834 277.975 20.416C278.416 20.998 278.637 21.7949 278.637 22.8066V22.9004ZM277.553 22.7773C277.553 22.0391 277.41 21.4688 277.125 21.0664C276.84 20.6641 276.43 20.4629 275.895 20.4629C275.18 20.4629 274.666 20.7949 274.354 21.459V24.2012C274.686 24.8652 275.203 25.1973 275.906 25.1973C276.426 25.1973 276.83 24.9961 277.119 24.5938C277.408 24.1914 277.553 23.5859 277.553 22.7773ZM281.186 26H280.102V17H281.186V26ZM285.557 26.1172C284.697 26.1172 283.998 25.8359 283.459 25.2734C282.92 24.707 282.65 23.9512 282.65 23.0059V22.8066C282.65 22.1777 282.77 21.6172 283.008 21.125C283.25 20.6289 283.586 20.2422 284.016 19.9648C284.449 19.6836 284.918 19.543 285.422 19.543C286.246 19.543 286.887 19.8145 287.344 20.3574C287.801 20.9004 288.029 21.6777 288.029 22.6895V23.1406H283.734C283.75 23.7656 283.932 24.2715 284.279 24.6582C284.631 25.041 285.076 25.2324 285.615 25.2324C285.998 25.2324 286.322 25.1543 286.588 24.998C286.854 24.8418 287.086 24.6348 287.285 24.377L287.947 24.8926C287.416 25.709 286.619 26.1172 285.557 26.1172ZM285.422 20.4336C284.984 20.4336 284.617 20.5938 284.32 20.9141C284.023 21.2305 283.84 21.6758 283.77 22.25H286.945V22.168C286.914 21.6172 286.766 21.1914 286.5 20.8906C286.234 20.5859 285.875 20.4336 285.422 20.4336ZM290.314 19.6602L290.35 20.457C290.834 19.8477 291.467 19.543 292.248 19.543C293.588 19.543 294.264 20.2988 294.275 21.8105V26H293.191V21.8047C293.188 21.3477 293.082 21.0098 292.875 20.791C292.672 20.5723 292.354 20.4629 291.92 20.4629C291.568 20.4629 291.26 20.5566 290.994 20.7441C290.729 20.9316 290.521 21.1777 290.373 21.4824V26H289.289V19.6602H290.314ZM295.646 22.7773C295.646 21.8047 295.877 21.0234 296.338 20.4336C296.799 19.8398 297.402 19.543 298.148 19.543C298.891 19.543 299.479 19.7969 299.912 20.3047V17H300.996V26H300L299.947 25.3203C299.514 25.8516 298.91 26.1172 298.137 26.1172C297.402 26.1172 296.803 25.8164 296.338 25.2148C295.877 24.6133 295.646 23.8281 295.646 22.8594V22.7773ZM296.73 22.9004C296.73 23.6191 296.879 24.1816 297.176 24.5879C297.473 24.9941 297.883 25.1973 298.406 25.1973C299.094 25.1973 299.596 24.8887 299.912 24.2715V21.3594C299.588 20.7617 299.09 20.4629 298.418 20.4629C297.887 20.4629 297.473 20.668 297.176 21.0781C296.879 21.4883 296.73 22.0957 296.73 22.9004ZM305.314 26.1172C304.455 26.1172 303.756 25.8359 303.217 25.2734C302.678 24.707 302.408 23.9512 302.408 23.0059V22.8066C302.408 22.1777 302.527 21.6172 302.766 21.125C303.008 20.6289 303.344 20.2422 303.773 19.9648C304.207 19.6836 304.676 19.543 305.18 19.543C306.004 19.543 306.645 19.8145 307.102 20.3574C307.559 20.9004 307.787 21.6777 307.787 22.6895V23.1406H303.492C303.508 23.7656 303.689 24.2715 304.037 24.6582C304.389 25.041 304.834 25.2324 305.373 25.2324C305.756 25.2324 306.08 25.1543 306.346 24.998C306.611 24.8418 306.844 24.6348 307.043 24.377L307.705 24.8926C307.174 25.709 306.377 26.1172 305.314 26.1172ZM305.18 20.4336C304.742 20.4336 304.375 20.5938 304.078 20.9141C303.781 21.2305 303.598 21.6758 303.527 22.25H306.703V22.168C306.672 21.6172 306.523 21.1914 306.258 20.8906C305.992 20.5859 305.633 20.4336 305.18 20.4336ZM312.111 20.6328C311.947 20.6055 311.77 20.5918 311.578 20.5918C310.867 20.5918 310.385 20.8945 310.131 21.5V26H309.047V19.6602H310.102L310.119 20.3926C310.475 19.8262 310.979 19.543 311.631 19.543C311.842 19.543 312.002 19.5703 312.111 19.625V20.6328Z" fill="black"/>
<rect x="210.5" y="0.5" width="133" height="57" rx="4.5" stroke="black"/>
<rect x="36.5" y="0.5" width="133" height="57" rx="4.5" fill="white"/>
<path d="M85.4043 27.5098C85.4043 28.3457 85.2637 29.0762 84.9824 29.7012C84.7012 30.3223 84.3027 30.7969 83.7871 31.125C83.2715 31.4531 82.6699 31.6172 81.9824 31.6172C81.3105 31.6172 80.7148 31.4531 80.1953 31.125C79.6758 30.793 79.2715 30.3223 78.9824 29.7129C78.6973 29.0996 78.5508 28.3906 78.543 27.5859V26.9707C78.543 26.1504 78.6855 25.4258 78.9707 24.7969C79.2559 24.168 79.6582 23.6875 80.1777 23.3555C80.7012 23.0195 81.2988 22.8516 81.9707 22.8516C82.6543 22.8516 83.2559 23.0176 83.7754 23.3496C84.2988 23.6777 84.7012 24.1562 84.9824 24.7852C85.2637 25.4102 85.4043 26.1387 85.4043 26.9707V27.5098ZM84.2852 26.959C84.2852 25.9473 84.082 25.1719 83.6758 24.6328C83.2695 24.0898 82.7012 23.8184 81.9707 23.8184C81.2598 23.8184 80.6992 24.0898 80.2891 24.6328C79.8828 25.1719 79.6738 25.9219 79.6621 26.8828V27.5098C79.6621 28.4902 79.8672 29.2617 80.2773 29.8242C80.6914 30.3828 81.2598 30.6621 81.9824 30.6621C82.709 30.6621 83.2715 30.3984 83.6699 29.8711C84.0684 29.3398 84.2734 28.5801 84.2852 27.5918V26.959ZM92.2773 28.4004C92.2773 29.3652 92.0566 30.1426 91.6152 30.7324C91.1738 31.3223 90.5762 31.6172 89.8223 31.6172C89.0527 31.6172 88.4473 31.373 88.0059 30.8848V33.9375H86.9219V25.1602H87.9121L87.9648 25.8633C88.4062 25.3164 89.0195 25.043 89.8047 25.043C90.5664 25.043 91.168 25.3301 91.6094 25.9043C92.0547 26.4785 92.2773 27.2773 92.2773 28.3008V28.4004ZM91.1934 28.2773C91.1934 27.5625 91.041 26.998 90.7363 26.584C90.4316 26.1699 90.0137 25.9629 89.4824 25.9629C88.8262 25.9629 88.334 26.2539 88.0059 26.8359V29.8652C88.3301 30.4434 88.8262 30.7324 89.4941 30.7324C90.0137 30.7324 90.4258 30.5273 90.7305 30.1172C91.0391 29.7031 91.1934 29.0898 91.1934 28.2773ZM96.291 31.6172C95.4316 31.6172 94.7324 31.3359 94.1934 30.7734C93.6543 30.207 93.3848 29.4512 93.3848 28.5059V28.3066C93.3848 27.6777 93.5039 27.1172 93.7422 26.625C93.9844 26.1289 94.3203 25.7422 94.75 25.4648C95.1836 25.1836 95.6523 25.043 96.1562 25.043C96.9805 25.043 97.6211 25.3145 98.0781 25.8574C98.5352 26.4004 98.7637 27.1777 98.7637 28.1895V28.6406H94.4688C94.4844 29.2656 94.666 29.7715 95.0137 30.1582C95.3652 30.541 95.8105 30.7324 96.3496 30.7324C96.7324 30.7324 97.0566 30.6543 97.3223 30.498C97.5879 30.3418 97.8203 30.1348 98.0195 29.877L98.6816 30.3926C98.1504 31.209 97.3535 31.6172 96.291 31.6172ZM96.1562 25.9336C95.7188 25.9336 95.3516 26.0938 95.0547 26.4141C94.7578 26.7305 94.5742 27.1758 94.5039 27.75H97.6797V27.668C97.6484 27.1172 97.5 26.6914 97.2344 26.3906C96.9688 26.0859 96.6094 25.9336 96.1562 25.9336ZM101.049 25.1602L101.084 25.957C101.568 25.3477 102.201 25.043 102.982 25.043C104.322 25.043 104.998 25.7988 105.01 27.3105V31.5H103.926V27.3047C103.922 26.8477 103.816 26.5098 103.609 26.291C103.406 26.0723 103.088 25.9629 102.654 25.9629C102.303 25.9629 101.994 26.0566 101.729 26.2441C101.463 26.4316 101.256 26.6777 101.107 26.9824V31.5H100.023V25.1602H101.049ZM111.244 22.9688L114.033 29.9297L116.822 22.9688H118.281V31.5H117.156V28.1777L117.262 24.5918L114.461 31.5H113.6L110.805 24.6094L110.916 28.1777V31.5H109.791V22.9688H111.244ZM121.275 31.5H120.191V25.1602H121.275V31.5ZM120.104 23.4785C120.104 23.3027 120.156 23.1543 120.262 23.0332C120.371 22.9121 120.531 22.8516 120.742 22.8516C120.953 22.8516 121.113 22.9121 121.223 23.0332C121.332 23.1543 121.387 23.3027 121.387 23.4785C121.387 23.6543 121.332 23.8008 121.223 23.918C121.113 24.0352 120.953 24.0938 120.742 24.0938C120.531 24.0938 120.371 24.0352 120.262 23.918C120.156 23.8008 120.104 23.6543 120.104 23.4785ZM125.143 27.4746L126.549 25.1602H127.814L125.74 28.2949L127.879 31.5H126.625L125.16 29.127L123.695 31.5H122.436L124.574 28.2949L122.5 25.1602H123.754L125.143 27.4746Z" fill="black"/>
<rect x="36.5" y="0.5" width="133" height="57" rx="4.5" stroke="black"/>
<rect x="384" y="122" width="134" height="58" rx="5" fill="white"/>
<path d="M417.115 151.66V155H415.99V146.469H419.137C420.07 146.469 420.801 146.707 421.328 147.184C421.859 147.66 422.125 148.291 422.125 149.076C422.125 149.904 421.865 150.543 421.346 150.992C420.83 151.438 420.09 151.66 419.125 151.66H417.115ZM417.115 150.74H419.137C419.738 150.74 420.199 150.6 420.52 150.318C420.84 150.033 421 149.623 421 149.088C421 148.58 420.84 148.174 420.52 147.869C420.199 147.564 419.76 147.406 419.201 147.395H417.115V150.74ZM423.021 151.771C423.021 151.15 423.143 150.592 423.385 150.096C423.631 149.6 423.971 149.217 424.404 148.947C424.842 148.678 425.34 148.543 425.898 148.543C426.762 148.543 427.459 148.842 427.99 149.439C428.525 150.037 428.793 150.832 428.793 151.824V151.9C428.793 152.518 428.674 153.072 428.436 153.564C428.201 154.053 427.863 154.434 427.422 154.707C426.984 154.98 426.48 155.117 425.91 155.117C425.051 155.117 424.354 154.818 423.818 154.221C423.287 153.623 423.021 152.832 423.021 151.848V151.771ZM424.111 151.9C424.111 152.604 424.273 153.168 424.598 153.594C424.926 154.02 425.363 154.232 425.91 154.232C426.461 154.232 426.898 154.018 427.223 153.588C427.547 153.154 427.709 152.549 427.709 151.771C427.709 151.076 427.543 150.514 427.211 150.084C426.883 149.65 426.445 149.434 425.898 149.434C425.363 149.434 424.932 149.646 424.604 150.072C424.275 150.498 424.111 151.107 424.111 151.9ZM434.066 154.373C433.645 154.869 433.025 155.117 432.209 155.117C431.533 155.117 431.018 154.922 430.662 154.531C430.311 154.137 430.133 153.555 430.129 152.785V148.66H431.213V152.756C431.213 153.717 431.604 154.197 432.385 154.197C433.213 154.197 433.764 153.889 434.037 153.271V148.66H435.121V155H434.09L434.066 154.373ZM439.838 149.633C439.674 149.605 439.496 149.592 439.305 149.592C438.594 149.592 438.111 149.895 437.857 150.5V155H436.773V148.66H437.828L437.846 149.393C438.201 148.826 438.705 148.543 439.357 148.543C439.568 148.543 439.729 148.57 439.838 148.625V149.633ZM444.994 155H443.91V148.66H444.994V155ZM443.822 146.979C443.822 146.803 443.875 146.654 443.98 146.533C444.09 146.412 444.25 146.352 444.461 146.352C444.672 146.352 444.832 146.412 444.941 146.533C445.051 146.654 445.105 146.803 445.105 146.979C445.105 147.154 445.051 147.301 444.941 147.418C444.832 147.535 444.672 147.594 444.461 147.594C444.25 147.594 444.09 147.535 443.98 147.418C443.875 147.301 443.822 147.154 443.822 146.979ZM447.76 148.66L447.795 149.457C448.279 148.848 448.912 148.543 449.693 148.543C451.033 148.543 451.709 149.299 451.721 150.811V155H450.637V150.805C450.633 150.348 450.527 150.01 450.32 149.791C450.117 149.572 449.799 149.463 449.365 149.463C449.014 149.463 448.705 149.557 448.439 149.744C448.174 149.932 447.967 150.178 447.818 150.482V155H446.734V148.66H447.76ZM459.396 149.633C459.232 149.605 459.055 149.592 458.863 149.592C458.152 149.592 457.67 149.895 457.416 150.5V155H456.332V148.66H457.387L457.404 149.393C457.76 148.826 458.264 148.543 458.916 148.543C459.127 148.543 459.287 148.57 459.396 148.625V149.633ZM464.312 154.373C463.891 154.869 463.271 155.117 462.455 155.117C461.779 155.117 461.264 154.922 460.908 154.531C460.557 154.137 460.379 153.555 460.375 152.785V148.66H461.459V152.756C461.459 153.717 461.85 154.197 462.631 154.197C463.459 154.197 464.01 153.889 464.283 153.271V148.66H465.367V155H464.336L464.312 154.373ZM468.039 148.66L468.068 149.363C468.533 148.816 469.16 148.543 469.949 148.543C470.836 148.543 471.439 148.883 471.76 149.562C471.971 149.258 472.244 149.012 472.58 148.824C472.92 148.637 473.32 148.543 473.781 148.543C475.172 148.543 475.879 149.279 475.902 150.752V155H474.818V150.816C474.818 150.363 474.715 150.025 474.508 149.803C474.301 149.576 473.953 149.463 473.465 149.463C473.062 149.463 472.729 149.584 472.463 149.826C472.197 150.064 472.043 150.387 472 150.793V155H470.91V150.846C470.91 149.924 470.459 149.463 469.557 149.463C468.846 149.463 468.359 149.766 468.098 150.371V155H467.014V148.66H468.039Z" fill="black"/>
<rect x="210" y="122" width="134" height="58" rx="5" fill="white"/>
<path d="M246.701 145.773H243.127L242.324 148H241.164L244.422 139.469H245.406L248.67 148H247.516L246.701 145.773ZM243.467 144.848H246.367L244.914 140.857L243.467 144.848ZM249.385 144.777C249.385 143.805 249.615 143.023 250.076 142.434C250.537 141.84 251.141 141.543 251.887 141.543C252.629 141.543 253.217 141.797 253.65 142.305V139H254.734V148H253.738L253.686 147.32C253.252 147.852 252.648 148.117 251.875 148.117C251.141 148.117 250.541 147.816 250.076 147.215C249.615 146.613 249.385 145.828 249.385 144.859V144.777ZM250.469 144.9C250.469 145.619 250.617 146.182 250.914 146.588C251.211 146.994 251.621 147.197 252.145 147.197C252.832 147.197 253.334 146.889 253.65 146.271V143.359C253.326 142.762 252.828 142.463 252.156 142.463C251.625 142.463 251.211 142.668 250.914 143.078C250.617 143.488 250.469 144.096 250.469 144.9ZM256.158 144.777C256.158 143.805 256.389 143.023 256.85 142.434C257.311 141.84 257.914 141.543 258.66 141.543C259.402 141.543 259.99 141.797 260.424 142.305V139H261.508V148H260.512L260.459 147.32C260.025 147.852 259.422 148.117 258.648 148.117C257.914 148.117 257.314 147.816 256.85 147.215C256.389 146.613 256.158 145.828 256.158 144.859V144.777ZM257.242 144.9C257.242 145.619 257.391 146.182 257.688 146.588C257.984 146.994 258.395 147.197 258.918 147.197C259.605 147.197 260.107 146.889 260.424 146.271V143.359C260.1 142.762 259.602 142.463 258.93 142.463C258.398 142.463 257.984 142.668 257.688 143.078C257.391 143.488 257.242 144.096 257.242 144.9ZM267.643 140.125V141.66H268.826V142.498H267.643V146.43C267.643 146.684 267.695 146.875 267.801 147.004C267.906 147.129 268.086 147.191 268.34 147.191C268.465 147.191 268.637 147.168 268.855 147.121V148C268.57 148.078 268.293 148.117 268.023 148.117C267.539 148.117 267.174 147.971 266.928 147.678C266.682 147.385 266.559 146.969 266.559 146.43V142.498H265.404V141.66H266.559V140.125H267.643ZM275.711 146.506L276.93 141.66H278.014L276.168 148H275.289L273.748 143.195L272.248 148H271.369L269.529 141.66H270.607L271.855 146.406L273.332 141.66H274.205L275.711 146.506ZM278.834 144.771C278.834 144.15 278.955 143.592 279.197 143.096C279.443 142.6 279.783 142.217 280.217 141.947C280.654 141.678 281.152 141.543 281.711 141.543C282.574 141.543 283.271 141.842 283.803 142.439C284.338 143.037 284.605 143.832 284.605 144.824V144.9C284.605 145.518 284.486 146.072 284.248 146.564C284.014 147.053 283.676 147.434 283.234 147.707C282.797 147.98 282.293 148.117 281.723 148.117C280.863 148.117 280.166 147.818 279.631 147.221C279.1 146.623 278.834 145.832 278.834 144.848V144.771ZM279.924 144.9C279.924 145.604 280.086 146.168 280.41 146.594C280.738 147.02 281.176 147.232 281.723 147.232C282.273 147.232 282.711 147.018 283.035 146.588C283.359 146.154 283.521 145.549 283.521 144.771C283.521 144.076 283.355 143.514 283.023 143.084C282.695 142.65 282.258 142.434 281.711 142.434C281.176 142.434 280.744 142.646 280.416 143.072C280.088 143.498 279.924 144.107 279.924 144.9ZM244.363 161.232C244.75 161.232 245.088 161.115 245.377 160.881C245.666 160.646 245.826 160.354 245.857 160.002H246.883C246.863 160.365 246.738 160.711 246.508 161.039C246.277 161.367 245.969 161.629 245.582 161.824C245.199 162.02 244.793 162.117 244.363 162.117C243.5 162.117 242.812 161.83 242.301 161.256C241.793 160.678 241.539 159.889 241.539 158.889V158.707C241.539 158.09 241.652 157.541 241.879 157.061C242.105 156.58 242.43 156.207 242.852 155.941C243.277 155.676 243.779 155.543 244.357 155.543C245.068 155.543 245.658 155.756 246.127 156.182C246.6 156.607 246.852 157.16 246.883 157.84H245.857C245.826 157.43 245.67 157.094 245.389 156.832C245.111 156.566 244.768 156.434 244.357 156.434C243.807 156.434 243.379 156.633 243.074 157.031C242.773 157.426 242.623 157.998 242.623 158.748V158.953C242.623 159.684 242.773 160.246 243.074 160.641C243.375 161.035 243.805 161.232 244.363 161.232ZM252.016 161.373C251.594 161.869 250.975 162.117 250.158 162.117C249.482 162.117 248.967 161.922 248.611 161.531C248.26 161.137 248.082 160.555 248.078 159.785V155.66H249.162V159.756C249.162 160.717 249.553 161.197 250.334 161.197C251.162 161.197 251.713 160.889 251.986 160.271V155.66H253.07V162H252.039L252.016 161.373ZM260.078 158.9C260.078 159.865 259.857 160.643 259.416 161.232C258.975 161.822 258.377 162.117 257.623 162.117C256.854 162.117 256.248 161.873 255.807 161.385V164.438H254.723V155.66H255.713L255.766 156.363C256.207 155.816 256.82 155.543 257.605 155.543C258.367 155.543 258.969 155.83 259.41 156.404C259.855 156.979 260.078 157.777 260.078 158.801V158.9ZM258.994 158.777C258.994 158.062 258.842 157.498 258.537 157.084C258.232 156.67 257.814 156.463 257.283 156.463C256.627 156.463 256.135 156.754 255.807 157.336V160.365C256.131 160.943 256.627 161.232 257.295 161.232C257.814 161.232 258.227 161.027 258.531 160.617C258.84 160.203 258.994 159.59 258.994 158.777ZM265.152 160.318C265.152 160.025 265.041 159.799 264.818 159.639C264.6 159.475 264.215 159.334 263.664 159.217C263.117 159.1 262.682 158.959 262.357 158.795C262.037 158.631 261.799 158.436 261.643 158.209C261.49 157.982 261.414 157.713 261.414 157.4C261.414 156.881 261.633 156.441 262.07 156.082C262.512 155.723 263.074 155.543 263.758 155.543C264.477 155.543 265.059 155.729 265.504 156.1C265.953 156.471 266.178 156.945 266.178 157.523H265.088C265.088 157.227 264.961 156.971 264.707 156.756C264.457 156.541 264.141 156.434 263.758 156.434C263.363 156.434 263.055 156.52 262.832 156.691C262.609 156.863 262.498 157.088 262.498 157.365C262.498 157.627 262.602 157.824 262.809 157.957C263.016 158.09 263.389 158.217 263.928 158.338C264.471 158.459 264.91 158.604 265.246 158.771C265.582 158.939 265.83 159.143 265.99 159.381C266.154 159.615 266.236 159.902 266.236 160.242C266.236 160.809 266.01 161.264 265.557 161.607C265.104 161.947 264.516 162.117 263.793 162.117C263.285 162.117 262.836 162.027 262.445 161.848C262.055 161.668 261.748 161.418 261.525 161.098C261.307 160.773 261.197 160.424 261.197 160.049H262.281C262.301 160.412 262.445 160.701 262.715 160.916C262.988 161.127 263.348 161.232 263.793 161.232C264.203 161.232 264.531 161.15 264.777 160.986C265.027 160.818 265.152 160.596 265.152 160.318ZM271.803 162H270.719V155.66H271.803V162ZM270.631 153.979C270.631 153.803 270.684 153.654 270.789 153.533C270.898 153.412 271.059 153.352 271.27 153.352C271.48 153.352 271.641 153.412 271.75 153.533C271.859 153.654 271.914 153.803 271.914 153.979C271.914 154.154 271.859 154.301 271.75 154.418C271.641 154.535 271.48 154.594 271.27 154.594C271.059 154.594 270.898 154.535 270.789 154.418C270.684 154.301 270.631 154.154 270.631 153.979ZM276.086 161.232C276.473 161.232 276.811 161.115 277.1 160.881C277.389 160.646 277.549 160.354 277.58 160.002H278.605C278.586 160.365 278.461 160.711 278.23 161.039C278 161.367 277.691 161.629 277.305 161.824C276.922 162.02 276.516 162.117 276.086 162.117C275.223 162.117 274.535 161.83 274.023 161.256C273.516 160.678 273.262 159.889 273.262 158.889V158.707C273.262 158.09 273.375 157.541 273.602 157.061C273.828 156.58 274.152 156.207 274.574 155.941C275 155.676 275.502 155.543 276.08 155.543C276.791 155.543 277.381 155.756 277.85 156.182C278.322 156.607 278.574 157.16 278.605 157.84H277.58C277.549 157.43 277.393 157.094 277.111 156.832C276.834 156.566 276.49 156.434 276.08 156.434C275.529 156.434 275.102 156.633 274.797 157.031C274.496 157.426 274.346 157.998 274.346 158.748V158.953C274.346 159.684 274.496 160.246 274.797 160.641C275.098 161.035 275.527 161.232 276.086 161.232ZM282.455 162.117C281.596 162.117 280.896 161.836 280.357 161.273C279.818 160.707 279.549 159.951 279.549 159.006V158.807C279.549 158.178 279.668 157.617 279.906 157.125C280.148 156.629 280.484 156.242 280.914 155.965C281.348 155.684 281.816 155.543 282.32 155.543C283.145 155.543 283.785 155.814 284.242 156.357C284.699 156.9 284.928 157.678 284.928 158.689V159.141H280.633C280.648 159.766 280.83 160.271 281.178 160.658C281.529 161.041 281.975 161.232 282.514 161.232C282.896 161.232 283.221 161.154 283.486 160.998C283.752 160.842 283.984 160.635 284.184 160.377L284.846 160.893C284.314 161.709 283.518 162.117 282.455 162.117ZM282.32 156.434C281.883 156.434 281.516 156.594 281.219 156.914C280.922 157.23 280.738 157.676 280.668 158.25H283.844V158.168C283.812 157.617 283.664 157.191 283.398 156.891C283.133 156.586 282.773 156.434 282.32 156.434Z" fill="black"/>
<rect x="36" y="122" width="134" height="58" rx="5" fill="white"/>
<path d="M69.1152 144.66V148H67.9902V139.469H71.1367C72.0703 139.469 72.8008 139.707 73.3281 140.184C73.8594 140.66 74.125 141.291 74.125 142.076C74.125 142.904 73.8652 143.543 73.3457 143.992C72.8301 144.438 72.0898 144.66 71.125 144.66H69.1152ZM69.1152 143.74H71.1367C71.7383 143.74 72.1992 143.6 72.5195 143.318C72.8398 143.033 73 142.623 73 142.088C73 141.58 72.8398 141.174 72.5195 140.869C72.1992 140.564 71.7598 140.406 71.2012 140.395H69.1152V143.74ZM79.3047 147.373C78.8828 147.869 78.2637 148.117 77.4473 148.117C76.7715 148.117 76.2559 147.922 75.9004 147.531C75.5488 147.137 75.3711 146.555 75.3672 145.785V141.66H76.4512V145.756C76.4512 146.717 76.8418 147.197 77.623 147.197C78.4512 147.197 79.002 146.889 79.2754 146.271V141.66H80.3594V148H79.3281L79.3047 147.373ZM83.4824 140.125V141.66H84.666V142.498H83.4824V146.43C83.4824 146.684 83.5352 146.875 83.6406 147.004C83.7461 147.129 83.9258 147.191 84.1797 147.191C84.3047 147.191 84.4766 147.168 84.6953 147.121V148C84.4102 148.078 84.1328 148.117 83.8633 148.117C83.3789 148.117 83.0137 147.971 82.7676 147.678C82.5215 147.385 82.3984 146.969 82.3984 146.43V142.498H81.2441V141.66H82.3984V140.125H83.4824ZM89.9336 141.66L89.9629 142.363C90.4277 141.816 91.0547 141.543 91.8438 141.543C92.7305 141.543 93.334 141.883 93.6543 142.562C93.8652 142.258 94.1387 142.012 94.4746 141.824C94.8145 141.637 95.2148 141.543 95.6758 141.543C97.0664 141.543 97.7734 142.279 97.7969 143.752V148H96.7129V143.816C96.7129 143.363 96.6094 143.025 96.4023 142.803C96.1953 142.576 95.8477 142.463 95.3594 142.463C94.957 142.463 94.623 142.584 94.3574 142.826C94.0918 143.064 93.9375 143.387 93.8945 143.793V148H92.8047V143.846C92.8047 142.924 92.3535 142.463 91.4512 142.463C90.7402 142.463 90.2539 142.766 89.9922 143.371V148H88.9082V141.66H89.9336ZM100.615 148H99.5312V141.66H100.615V148ZM99.4434 139.979C99.4434 139.803 99.4961 139.654 99.6016 139.533C99.7109 139.412 99.8711 139.352 100.082 139.352C100.293 139.352 100.453 139.412 100.562 139.533C100.672 139.654 100.727 139.803 100.727 139.979C100.727 140.154 100.672 140.301 100.562 140.418C100.453 140.535 100.293 140.594 100.082 140.594C99.8711 140.594 99.7109 140.535 99.6016 140.418C99.4961 140.301 99.4434 140.154 99.4434 139.979ZM104.482 143.975L105.889 141.66H107.154L105.08 144.795L107.219 148H105.965L104.5 145.627L103.035 148H101.775L103.914 144.795L101.84 141.66H103.094L104.482 143.975ZM112.463 148H111.379V141.66H112.463V148ZM111.291 139.979C111.291 139.803 111.344 139.654 111.449 139.533C111.559 139.412 111.719 139.352 111.93 139.352C112.141 139.352 112.301 139.412 112.41 139.533C112.52 139.654 112.574 139.803 112.574 139.979C112.574 140.154 112.52 140.301 112.41 140.418C112.301 140.535 112.141 140.594 111.93 140.594C111.719 140.594 111.559 140.535 111.449 140.418C111.344 140.301 111.291 140.154 111.291 139.979ZM115.229 141.66L115.264 142.457C115.748 141.848 116.381 141.543 117.162 141.543C118.502 141.543 119.178 142.299 119.189 143.811V148H118.105V143.805C118.102 143.348 117.996 143.01 117.789 142.791C117.586 142.572 117.268 142.463 116.834 142.463C116.482 142.463 116.174 142.557 115.908 142.744C115.643 142.932 115.436 143.178 115.287 143.482V148H114.203V141.66H115.229ZM73.1875 158.9C73.1875 159.869 72.9648 160.648 72.5195 161.238C72.0742 161.824 71.4766 162.117 70.7266 162.117C69.9258 162.117 69.3066 161.834 68.8691 161.268L68.8164 162H67.8203V153H68.9043V156.357C69.3418 155.814 69.9453 155.543 70.7148 155.543C71.4844 155.543 72.0879 155.834 72.5254 156.416C72.9668 156.998 73.1875 157.795 73.1875 158.807V158.9ZM72.1035 158.777C72.1035 158.039 71.9609 157.469 71.6758 157.066C71.3906 156.664 70.9805 156.463 70.4453 156.463C69.7305 156.463 69.2168 156.795 68.9043 157.459V160.201C69.2363 160.865 69.7539 161.197 70.457 161.197C70.9766 161.197 71.3809 160.996 71.6699 160.594C71.959 160.191 72.1035 159.586 72.1035 158.777ZM75.7363 162H74.6523V153H75.7363V162ZM80.1074 162.117C79.248 162.117 78.5488 161.836 78.0098 161.273C77.4707 160.707 77.2012 159.951 77.2012 159.006V158.807C77.2012 158.178 77.3203 157.617 77.5586 157.125C77.8008 156.629 78.1367 156.242 78.5664 155.965C79 155.684 79.4688 155.543 79.9727 155.543C80.7969 155.543 81.4375 155.814 81.8945 156.357C82.3516 156.9 82.5801 157.678 82.5801 158.689V159.141H78.2852C78.3008 159.766 78.4824 160.271 78.8301 160.658C79.1816 161.041 79.627 161.232 80.166 161.232C80.5488 161.232 80.873 161.154 81.1387 160.998C81.4043 160.842 81.6367 160.635 81.8359 160.377L82.498 160.893C81.9668 161.709 81.1699 162.117 80.1074 162.117ZM79.9727 156.434C79.5352 156.434 79.168 156.594 78.8711 156.914C78.5742 157.23 78.3906 157.676 78.3203 158.25H81.4961V158.168C81.4648 157.617 81.3164 157.191 81.0508 156.891C80.7852 156.586 80.4258 156.434 79.9727 156.434ZM84.8652 155.66L84.9004 156.457C85.3848 155.848 86.0176 155.543 86.7988 155.543C88.1387 155.543 88.8145 156.299 88.8262 157.811V162H87.7422V157.805C87.7383 157.348 87.6328 157.01 87.4258 156.791C87.2227 156.572 86.9043 156.463 86.4707 156.463C86.1191 156.463 85.8105 156.557 85.5449 156.744C85.2793 156.932 85.0723 157.178 84.9238 157.482V162H83.8398V155.66H84.8652ZM90.1973 158.777C90.1973 157.805 90.4277 157.023 90.8887 156.434C91.3496 155.84 91.9531 155.543 92.6992 155.543C93.4414 155.543 94.0293 155.797 94.4629 156.305V153H95.5469V162H94.5508L94.498 161.32C94.0645 161.852 93.4609 162.117 92.6875 162.117C91.9531 162.117 91.3535 161.816 90.8887 161.215C90.4277 160.613 90.1973 159.828 90.1973 158.859V158.777ZM91.2812 158.9C91.2812 159.619 91.4297 160.182 91.7266 160.588C92.0234 160.994 92.4336 161.197 92.957 161.197C93.6445 161.197 94.1465 160.889 94.4629 160.271V157.359C94.1387 156.762 93.6406 156.463 92.9688 156.463C92.4375 156.463 92.0234 156.668 91.7266 157.078C91.4297 157.488 91.2812 158.096 91.2812 158.9ZM99.8652 162.117C99.0059 162.117 98.3066 161.836 97.7676 161.273C97.2285 160.707 96.959 159.951 96.959 159.006V158.807C96.959 158.178 97.0781 157.617 97.3164 157.125C97.5586 156.629 97.8945 156.242 98.3242 155.965C98.7578 155.684 99.2266 155.543 99.7305 155.543C100.555 155.543 101.195 155.814 101.652 156.357C102.109 156.9 102.338 157.678 102.338 158.689V159.141H98.043C98.0586 159.766 98.2402 160.271 98.5879 160.658C98.9395 161.041 99.3848 161.232 99.9238 161.232C100.307 161.232 100.631 161.154 100.896 160.998C101.162 160.842 101.395 160.635 101.594 160.377L102.256 160.893C101.725 161.709 100.928 162.117 99.8652 162.117ZM99.7305 156.434C99.293 156.434 98.9258 156.594 98.6289 156.914C98.332 157.23 98.1484 157.676 98.0781 158.25H101.254V158.168C101.223 157.617 101.074 157.191 100.809 156.891C100.543 156.586 100.184 156.434 99.7305 156.434ZM106.662 156.633C106.498 156.605 106.32 156.592 106.129 156.592C105.418 156.592 104.936 156.895 104.682 157.5V162H103.598V155.66H104.652L104.67 156.393C105.025 155.826 105.529 155.543 106.182 155.543C106.393 155.543 106.553 155.57 106.662 155.625V156.633Z" fill="black"/>
<rect x="384.5" y="122.5" width="133" height="57" rx="4.5" fill="white"/>
<path d="M422.254 151.66V155H421.129V146.469H424.275C425.209 146.469 425.939 146.707 426.467 147.184C426.998 147.66 427.264 148.291 427.264 149.076C427.264 149.904 427.004 150.543 426.484 150.992C425.969 151.438 425.229 151.66 424.264 151.66H422.254ZM422.254 150.74H424.275C424.877 150.74 425.338 150.6 425.658 150.318C425.979 150.033 426.139 149.623 426.139 149.088C426.139 148.58 425.979 148.174 425.658 147.869C425.338 147.564 424.898 147.406 424.34 147.395H422.254V150.74ZM428.16 151.771C428.16 151.15 428.281 150.592 428.523 150.096C428.77 149.6 429.109 149.217 429.543 148.947C429.98 148.678 430.479 148.543 431.037 148.543C431.9 148.543 432.598 148.842 433.129 149.439C433.664 150.037 433.932 150.832 433.932 151.824V151.9C433.932 152.518 433.812 153.072 433.574 153.564C433.34 154.053 433.002 154.434 432.561 154.707C432.123 154.98 431.619 155.117 431.049 155.117C430.189 155.117 429.492 154.818 428.957 154.221C428.426 153.623 428.16 152.832 428.16 151.848V151.771ZM429.25 151.9C429.25 152.604 429.412 153.168 429.736 153.594C430.064 154.02 430.502 154.232 431.049 154.232C431.6 154.232 432.037 154.018 432.361 153.588C432.686 153.154 432.848 152.549 432.848 151.771C432.848 151.076 432.682 150.514 432.35 150.084C432.021 149.65 431.584 149.434 431.037 149.434C430.502 149.434 430.07 149.646 429.742 150.072C429.414 150.498 429.25 151.107 429.25 151.9ZM439.205 154.373C438.783 154.869 438.164 155.117 437.348 155.117C436.672 155.117 436.156 154.922 435.801 154.531C435.449 154.137 435.271 153.555 435.268 152.785V148.66H436.352V152.756C436.352 153.717 436.742 154.197 437.523 154.197C438.352 154.197 438.902 153.889 439.176 153.271V148.66H440.26V155H439.229L439.205 154.373ZM444.977 149.633C444.812 149.605 444.635 149.592 444.443 149.592C443.732 149.592 443.25 149.895 442.996 150.5V155H441.912V148.66H442.967L442.984 149.393C443.34 148.826 443.844 148.543 444.496 148.543C444.707 148.543 444.867 148.57 444.977 148.625V149.633ZM450.133 155H449.049V148.66H450.133V155ZM448.961 146.979C448.961 146.803 449.014 146.654 449.119 146.533C449.229 146.412 449.389 146.352 449.6 146.352C449.811 146.352 449.971 146.412 450.08 146.533C450.189 146.654 450.244 146.803 450.244 146.979C450.244 147.154 450.189 147.301 450.08 147.418C449.971 147.535 449.811 147.594 449.6 147.594C449.389 147.594 449.229 147.535 449.119 147.418C449.014 147.301 448.961 147.154 448.961 146.979ZM452.898 148.66L452.934 149.457C453.418 148.848 454.051 148.543 454.832 148.543C456.172 148.543 456.848 149.299 456.859 150.811V155H455.775V150.805C455.771 150.348 455.666 150.01 455.459 149.791C455.256 149.572 454.938 149.463 454.504 149.463C454.152 149.463 453.844 149.557 453.578 149.744C453.312 149.932 453.105 150.178 452.957 150.482V155H451.873V148.66H452.898ZM464.535 149.633C464.371 149.605 464.193 149.592 464.002 149.592C463.291 149.592 462.809 149.895 462.555 150.5V155H461.471V148.66H462.525L462.543 149.393C462.898 148.826 463.402 148.543 464.055 148.543C464.266 148.543 464.426 148.57 464.535 148.625V149.633ZM469.451 154.373C469.029 154.869 468.41 155.117 467.594 155.117C466.918 155.117 466.402 154.922 466.047 154.531C465.695 154.137 465.518 153.555 465.514 152.785V148.66H466.598V152.756C466.598 153.717 466.988 154.197 467.77 154.197C468.598 154.197 469.148 153.889 469.422 153.271V148.66H470.506V155H469.475L469.451 154.373ZM473.178 148.66L473.207 149.363C473.672 148.816 474.299 148.543 475.088 148.543C475.975 148.543 476.578 148.883 476.898 149.562C477.109 149.258 477.383 149.012 477.719 148.824C478.059 148.637 478.459 148.543 478.92 148.543C480.311 148.543 481.018 149.279 481.041 150.752V155H479.957V150.816C479.957 150.363 479.854 150.025 479.646 149.803C479.439 149.576 479.092 149.463 478.604 149.463C478.201 149.463 477.867 149.584 477.602 149.826C477.336 150.064 477.182 150.387 477.139 150.793V155H476.049V150.846C476.049 149.924 475.598 149.463 474.695 149.463C473.984 149.463 473.498 149.766 473.236 150.371V155H472.152V148.66H473.178Z" fill="black"/>
<rect x="384.5" y="122.5" width="133" height="57" rx="4.5" stroke="black"/>
<rect x="210.5" y="122.5" width="133" height="57" rx="4.5" fill="white"/>
<path d="M260.629 145.773H257.055L256.252 148H255.092L258.35 139.469H259.334L262.598 148H261.443L260.629 145.773ZM257.395 144.848H260.295L258.842 140.857L257.395 144.848ZM263.312 144.777C263.312 143.805 263.543 143.023 264.004 142.434C264.465 141.84 265.068 141.543 265.814 141.543C266.557 141.543 267.145 141.797 267.578 142.305V139H268.662V148H267.666L267.613 147.32C267.18 147.852 266.576 148.117 265.803 148.117C265.068 148.117 264.469 147.816 264.004 147.215C263.543 146.613 263.312 145.828 263.312 144.859V144.777ZM264.396 144.9C264.396 145.619 264.545 146.182 264.842 146.588C265.139 146.994 265.549 147.197 266.072 147.197C266.76 147.197 267.262 146.889 267.578 146.271V143.359C267.254 142.762 266.756 142.463 266.084 142.463C265.553 142.463 265.139 142.668 264.842 143.078C264.545 143.488 264.396 144.096 264.396 144.9ZM270.086 144.777C270.086 143.805 270.316 143.023 270.777 142.434C271.238 141.84 271.842 141.543 272.588 141.543C273.33 141.543 273.918 141.797 274.352 142.305V139H275.436V148H274.439L274.387 147.32C273.953 147.852 273.35 148.117 272.576 148.117C271.842 148.117 271.242 147.816 270.777 147.215C270.316 146.613 270.086 145.828 270.086 144.859V144.777ZM271.17 144.9C271.17 145.619 271.318 146.182 271.615 146.588C271.912 146.994 272.322 147.197 272.846 147.197C273.533 147.197 274.035 146.889 274.352 146.271V143.359C274.027 142.762 273.529 142.463 272.857 142.463C272.326 142.463 271.912 142.668 271.615 143.078C271.318 143.488 271.17 144.096 271.17 144.9ZM281.57 140.125V141.66H282.754V142.498H281.57V146.43C281.57 146.684 281.623 146.875 281.729 147.004C281.834 147.129 282.014 147.191 282.268 147.191C282.393 147.191 282.564 147.168 282.783 147.121V148C282.498 148.078 282.221 148.117 281.951 148.117C281.467 148.117 281.102 147.971 280.855 147.678C280.609 147.385 280.486 146.969 280.486 146.43V142.498H279.332V141.66H280.486V140.125H281.57ZM289.639 146.506L290.857 141.66H291.941L290.096 148H289.217L287.676 143.195L286.176 148H285.297L283.457 141.66H284.535L285.783 146.406L287.26 141.66H288.133L289.639 146.506ZM292.762 144.771C292.762 144.15 292.883 143.592 293.125 143.096C293.371 142.6 293.711 142.217 294.145 141.947C294.582 141.678 295.08 141.543 295.639 141.543C296.502 141.543 297.199 141.842 297.73 142.439C298.266 143.037 298.533 143.832 298.533 144.824V144.9C298.533 145.518 298.414 146.072 298.176 146.564C297.941 147.053 297.604 147.434 297.162 147.707C296.725 147.98 296.221 148.117 295.65 148.117C294.791 148.117 294.094 147.818 293.559 147.221C293.027 146.623 292.762 145.832 292.762 144.848V144.771ZM293.852 144.9C293.852 145.604 294.014 146.168 294.338 146.594C294.666 147.02 295.104 147.232 295.65 147.232C296.201 147.232 296.639 147.018 296.963 146.588C297.287 146.154 297.449 145.549 297.449 144.771C297.449 144.076 297.283 143.514 296.951 143.084C296.623 142.65 296.186 142.434 295.639 142.434C295.104 142.434 294.672 142.646 294.344 143.072C294.016 143.498 293.852 144.107 293.852 144.9ZM258.18 161.232C258.566 161.232 258.904 161.115 259.193 160.881C259.482 160.646 259.643 160.354 259.674 160.002H260.699C260.68 160.365 260.555 160.711 260.324 161.039C260.094 161.367 259.785 161.629 259.398 161.824C259.016 162.02 258.609 162.117 258.18 162.117C257.316 162.117 256.629 161.83 256.117 161.256C255.609 160.678 255.355 159.889 255.355 158.889V158.707C255.355 158.09 255.469 157.541 255.695 157.061C255.922 156.58 256.246 156.207 256.668 155.941C257.094 155.676 257.596 155.543 258.174 155.543C258.885 155.543 259.475 155.756 259.943 156.182C260.416 156.607 260.668 157.16 260.699 157.84H259.674C259.643 157.43 259.486 157.094 259.205 156.832C258.928 156.566 258.584 156.434 258.174 156.434C257.623 156.434 257.195 156.633 256.891 157.031C256.59 157.426 256.439 157.998 256.439 158.748V158.953C256.439 159.684 256.59 160.246 256.891 160.641C257.191 161.035 257.621 161.232 258.18 161.232ZM265.832 161.373C265.41 161.869 264.791 162.117 263.975 162.117C263.299 162.117 262.783 161.922 262.428 161.531C262.076 161.137 261.898 160.555 261.895 159.785V155.66H262.979V159.756C262.979 160.717 263.369 161.197 264.15 161.197C264.979 161.197 265.529 160.889 265.803 160.271V155.66H266.887V162H265.855L265.832 161.373ZM273.895 158.9C273.895 159.865 273.674 160.643 273.232 161.232C272.791 161.822 272.193 162.117 271.439 162.117C270.67 162.117 270.064 161.873 269.623 161.385V164.438H268.539V155.66H269.529L269.582 156.363C270.023 155.816 270.637 155.543 271.422 155.543C272.184 155.543 272.785 155.83 273.227 156.404C273.672 156.979 273.895 157.777 273.895 158.801V158.9ZM272.811 158.777C272.811 158.062 272.658 157.498 272.354 157.084C272.049 156.67 271.631 156.463 271.1 156.463C270.443 156.463 269.951 156.754 269.623 157.336V160.365C269.947 160.943 270.443 161.232 271.111 161.232C271.631 161.232 272.043 161.027 272.348 160.617C272.656 160.203 272.811 159.59 272.811 158.777ZM278.969 160.318C278.969 160.025 278.857 159.799 278.635 159.639C278.416 159.475 278.031 159.334 277.48 159.217C276.934 159.1 276.498 158.959 276.174 158.795C275.854 158.631 275.615 158.436 275.459 158.209C275.307 157.982 275.23 157.713 275.23 157.4C275.23 156.881 275.449 156.441 275.887 156.082C276.328 155.723 276.891 155.543 277.574 155.543C278.293 155.543 278.875 155.729 279.32 156.1C279.77 156.471 279.994 156.945 279.994 157.523H278.904C278.904 157.227 278.777 156.971 278.523 156.756C278.273 156.541 277.957 156.434 277.574 156.434C277.18 156.434 276.871 156.52 276.648 156.691C276.426 156.863 276.314 157.088 276.314 157.365C276.314 157.627 276.418 157.824 276.625 157.957C276.832 158.09 277.205 158.217 277.744 158.338C278.287 158.459 278.727 158.604 279.062 158.771C279.398 158.939 279.646 159.143 279.807 159.381C279.971 159.615 280.053 159.902 280.053 160.242C280.053 160.809 279.826 161.264 279.373 161.607C278.92 161.947 278.332 162.117 277.609 162.117C277.102 162.117 276.652 162.027 276.262 161.848C275.871 161.668 275.564 161.418 275.342 161.098C275.123 160.773 275.014 160.424 275.014 160.049H276.098C276.117 160.412 276.262 160.701 276.531 160.916C276.805 161.127 277.164 161.232 277.609 161.232C278.02 161.232 278.348 161.15 278.594 160.986C278.844 160.818 278.969 160.596 278.969 160.318ZM285.619 162H284.535V155.66H285.619V162ZM284.447 153.979C284.447 153.803 284.5 153.654 284.605 153.533C284.715 153.412 284.875 153.352 285.086 153.352C285.297 153.352 285.457 153.412 285.566 153.533C285.676 153.654 285.73 153.803 285.73 153.979C285.73 154.154 285.676 154.301 285.566 154.418C285.457 154.535 285.297 154.594 285.086 154.594C284.875 154.594 284.715 154.535 284.605 154.418C284.5 154.301 284.447 154.154 284.447 153.979ZM289.902 161.232C290.289 161.232 290.627 161.115 290.916 160.881C291.205 160.646 291.365 160.354 291.396 160.002H292.422C292.402 160.365 292.277 160.711 292.047 161.039C291.816 161.367 291.508 161.629 291.121 161.824C290.738 162.02 290.332 162.117 289.902 162.117C289.039 162.117 288.352 161.83 287.84 161.256C287.332 160.678 287.078 159.889 287.078 158.889V158.707C287.078 158.09 287.191 157.541 287.418 157.061C287.645 156.58 287.969 156.207 288.391 155.941C288.816 155.676 289.318 155.543 289.896 155.543C290.607 155.543 291.197 155.756 291.666 156.182C292.139 156.607 292.391 157.16 292.422 157.84H291.396C291.365 157.43 291.209 157.094 290.928 156.832C290.65 156.566 290.307 156.434 289.896 156.434C289.346 156.434 288.918 156.633 288.613 157.031C288.312 157.426 288.162 157.998 288.162 158.748V158.953C288.162 159.684 288.312 160.246 288.613 160.641C288.914 161.035 289.344 161.232 289.902 161.232ZM296.271 162.117C295.412 162.117 294.713 161.836 294.174 161.273C293.635 160.707 293.365 159.951 293.365 159.006V158.807C293.365 158.178 293.484 157.617 293.723 157.125C293.965 156.629 294.301 156.242 294.73 155.965C295.164 155.684 295.633 155.543 296.137 155.543C296.961 155.543 297.602 155.814 298.059 156.357C298.516 156.9 298.744 157.678 298.744 158.689V159.141H294.449C294.465 159.766 294.646 160.271 294.994 160.658C295.346 161.041 295.791 161.232 296.33 161.232C296.713 161.232 297.037 161.154 297.303 160.998C297.568 160.842 297.801 160.635 298 160.377L298.662 160.893C298.131 161.709 297.334 162.117 296.271 162.117ZM296.137 156.434C295.699 156.434 295.332 156.594 295.035 156.914C294.738 157.23 294.555 157.676 294.484 158.25H297.66V158.168C297.629 157.617 297.48 157.191 297.215 156.891C296.949 156.586 296.59 156.434 296.137 156.434Z" fill="black"/>
<rect x="210.5" y="122.5" width="133" height="57" rx="4.5" stroke="black"/>
<rect x="36.5" y="122.5" width="133" height="57" rx="4.5" fill="white"/>
<path d="M78.6133 144.66V148H77.4883V139.469H80.6348C81.5684 139.469 82.2988 139.707 82.8262 140.184C83.3574 140.66 83.623 141.291 83.623 142.076C83.623 142.904 83.3633 143.543 82.8438 143.992C82.3281 144.438 81.5879 144.66 80.623 144.66H78.6133ZM78.6133 143.74H80.6348C81.2363 143.74 81.6973 143.6 82.0176 143.318C82.3379 143.033 82.498 142.623 82.498 142.088C82.498 141.58 82.3379 141.174 82.0176 140.869C81.6973 140.564 81.2578 140.406 80.6992 140.395H78.6133V143.74ZM88.8027 147.373C88.3809 147.869 87.7617 148.117 86.9453 148.117C86.2695 148.117 85.7539 147.922 85.3984 147.531C85.0469 147.137 84.8691 146.555 84.8652 145.785V141.66H85.9492V145.756C85.9492 146.717 86.3398 147.197 87.1211 147.197C87.9492 147.197 88.5 146.889 88.7734 146.271V141.66H89.8574V148H88.8262L88.8027 147.373ZM92.9805 140.125V141.66H94.1641V142.498H92.9805V146.43C92.9805 146.684 93.0332 146.875 93.1387 147.004C93.2441 147.129 93.4238 147.191 93.6777 147.191C93.8027 147.191 93.9746 147.168 94.1934 147.121V148C93.9082 148.078 93.6309 148.117 93.3613 148.117C92.877 148.117 92.5117 147.971 92.2656 147.678C92.0195 147.385 91.8965 146.969 91.8965 146.43V142.498H90.7422V141.66H91.8965V140.125H92.9805ZM99.4316 141.66L99.4609 142.363C99.9258 141.816 100.553 141.543 101.342 141.543C102.229 141.543 102.832 141.883 103.152 142.562C103.363 142.258 103.637 142.012 103.973 141.824C104.312 141.637 104.713 141.543 105.174 141.543C106.564 141.543 107.271 142.279 107.295 143.752V148H106.211V143.816C106.211 143.363 106.107 143.025 105.9 142.803C105.693 142.576 105.346 142.463 104.857 142.463C104.455 142.463 104.121 142.584 103.855 142.826C103.59 143.064 103.436 143.387 103.393 143.793V148H102.303V143.846C102.303 142.924 101.852 142.463 100.949 142.463C100.238 142.463 99.752 142.766 99.4902 143.371V148H98.4062V141.66H99.4316ZM110.113 148H109.029V141.66H110.113V148ZM108.941 139.979C108.941 139.803 108.994 139.654 109.1 139.533C109.209 139.412 109.369 139.352 109.58 139.352C109.791 139.352 109.951 139.412 110.061 139.533C110.17 139.654 110.225 139.803 110.225 139.979C110.225 140.154 110.17 140.301 110.061 140.418C109.951 140.535 109.791 140.594 109.58 140.594C109.369 140.594 109.209 140.535 109.1 140.418C108.994 140.301 108.941 140.154 108.941 139.979ZM113.98 143.975L115.387 141.66H116.652L114.578 144.795L116.717 148H115.463L113.998 145.627L112.533 148H111.273L113.412 144.795L111.338 141.66H112.592L113.98 143.975ZM121.961 148H120.877V141.66H121.961V148ZM120.789 139.979C120.789 139.803 120.842 139.654 120.947 139.533C121.057 139.412 121.217 139.352 121.428 139.352C121.639 139.352 121.799 139.412 121.908 139.533C122.018 139.654 122.072 139.803 122.072 139.979C122.072 140.154 122.018 140.301 121.908 140.418C121.799 140.535 121.639 140.594 121.428 140.594C121.217 140.594 121.057 140.535 120.947 140.418C120.842 140.301 120.789 140.154 120.789 139.979ZM124.727 141.66L124.762 142.457C125.246 141.848 125.879 141.543 126.66 141.543C128 141.543 128.676 142.299 128.688 143.811V148H127.604V143.805C127.6 143.348 127.494 143.01 127.287 142.791C127.084 142.572 126.766 142.463 126.332 142.463C125.98 142.463 125.672 142.557 125.406 142.744C125.141 142.932 124.934 143.178 124.785 143.482V148H123.701V141.66H124.727ZM89.2656 158.9C89.2656 159.869 89.043 160.648 88.5977 161.238C88.1523 161.824 87.5547 162.117 86.8047 162.117C86.0039 162.117 85.3848 161.834 84.9473 161.268L84.8945 162H83.8984V153H84.9824V156.357C85.4199 155.814 86.0234 155.543 86.793 155.543C87.5625 155.543 88.166 155.834 88.6035 156.416C89.0449 156.998 89.2656 157.795 89.2656 158.807V158.9ZM88.1816 158.777C88.1816 158.039 88.0391 157.469 87.7539 157.066C87.4688 156.664 87.0586 156.463 86.5234 156.463C85.8086 156.463 85.2949 156.795 84.9824 157.459V160.201C85.3145 160.865 85.832 161.197 86.5352 161.197C87.0547 161.197 87.459 160.996 87.748 160.594C88.0371 160.191 88.1816 159.586 88.1816 158.777ZM91.8145 162H90.7305V153H91.8145V162ZM96.1855 162.117C95.3262 162.117 94.627 161.836 94.0879 161.273C93.5488 160.707 93.2793 159.951 93.2793 159.006V158.807C93.2793 158.178 93.3984 157.617 93.6367 157.125C93.8789 156.629 94.2148 156.242 94.6445 155.965C95.0781 155.684 95.5469 155.543 96.0508 155.543C96.875 155.543 97.5156 155.814 97.9727 156.357C98.4297 156.9 98.6582 157.678 98.6582 158.689V159.141H94.3633C94.3789 159.766 94.5605 160.271 94.9082 160.658C95.2598 161.041 95.7051 161.232 96.2441 161.232C96.627 161.232 96.9512 161.154 97.2168 160.998C97.4824 160.842 97.7148 160.635 97.9141 160.377L98.5762 160.893C98.0449 161.709 97.248 162.117 96.1855 162.117ZM96.0508 156.434C95.6133 156.434 95.2461 156.594 94.9492 156.914C94.6523 157.23 94.4688 157.676 94.3984 158.25H97.5742V158.168C97.543 157.617 97.3945 157.191 97.1289 156.891C96.8633 156.586 96.5039 156.434 96.0508 156.434ZM100.943 155.66L100.979 156.457C101.463 155.848 102.096 155.543 102.877 155.543C104.217 155.543 104.893 156.299 104.904 157.811V162H103.82V157.805C103.816 157.348 103.711 157.01 103.504 156.791C103.301 156.572 102.982 156.463 102.549 156.463C102.197 156.463 101.889 156.557 101.623 156.744C101.357 156.932 101.15 157.178 101.002 157.482V162H99.918V155.66H100.943ZM106.275 158.777C106.275 157.805 106.506 157.023 106.967 156.434C107.428 155.84 108.031 155.543 108.777 155.543C109.52 155.543 110.107 155.797 110.541 156.305V153H111.625V162H110.629L110.576 161.32C110.143 161.852 109.539 162.117 108.766 162.117C108.031 162.117 107.432 161.816 106.967 161.215C106.506 160.613 106.275 159.828 106.275 158.859V158.777ZM107.359 158.9C107.359 159.619 107.508 160.182 107.805 160.588C108.102 160.994 108.512 161.197 109.035 161.197C109.723 161.197 110.225 160.889 110.541 160.271V157.359C110.217 156.762 109.719 156.463 109.047 156.463C108.516 156.463 108.102 156.668 107.805 157.078C107.508 157.488 107.359 158.096 107.359 158.9ZM115.943 162.117C115.084 162.117 114.385 161.836 113.846 161.273C113.307 160.707 113.037 159.951 113.037 159.006V158.807C113.037 158.178 113.156 157.617 113.395 157.125C113.637 156.629 113.973 156.242 114.402 155.965C114.836 155.684 115.305 155.543 115.809 155.543C116.633 155.543 117.273 155.814 117.73 156.357C118.188 156.9 118.416 157.678 118.416 158.689V159.141H114.121C114.137 159.766 114.318 160.271 114.666 160.658C115.018 161.041 115.463 161.232 116.002 161.232C116.385 161.232 116.709 161.154 116.975 160.998C117.24 160.842 117.473 160.635 117.672 160.377L118.334 160.893C117.803 161.709 117.006 162.117 115.943 162.117ZM115.809 156.434C115.371 156.434 115.004 156.594 114.707 156.914C114.41 157.23 114.227 157.676 114.156 158.25H117.332V158.168C117.301 157.617 117.152 157.191 116.887 156.891C116.621 156.586 116.262 156.434 115.809 156.434ZM122.74 156.633C122.576 156.605 122.398 156.592 122.207 156.592C121.496 156.592 121.014 156.895 120.76 157.5V162H119.676V155.66H120.73L120.748 156.393C121.104 155.826 121.607 155.543 122.26 155.543C122.471 155.543 122.631 155.57 122.74 155.625V156.633Z" fill="black"/>
<rect x="36.5" y="122.5" width="133" height="57" rx="4.5" stroke="black"/>
<rect x="384.5" y="244.5" width="133" height="57" rx="4.5" fill="white"/>
<path d="M443.201 267.293C443.096 268.195 442.762 268.893 442.199 269.385C441.641 269.873 440.896 270.117 439.967 270.117C438.959 270.117 438.15 269.756 437.541 269.033C436.936 268.311 436.633 267.344 436.633 266.133V265.312C436.633 264.52 436.773 263.822 437.055 263.221C437.34 262.619 437.742 262.158 438.262 261.838C438.781 261.514 439.383 261.352 440.066 261.352C440.973 261.352 441.699 261.605 442.246 262.113C442.793 262.617 443.111 263.316 443.201 264.211H442.07C441.973 263.531 441.76 263.039 441.432 262.734C441.107 262.43 440.652 262.277 440.066 262.277C439.348 262.277 438.783 262.543 438.373 263.074C437.967 263.605 437.764 264.361 437.764 265.342V266.168C437.764 267.094 437.957 267.83 438.344 268.377C438.73 268.924 439.271 269.197 439.967 269.197C440.592 269.197 441.07 269.057 441.402 268.775C441.738 268.49 441.961 267.996 442.07 267.293H443.201ZM445.75 270H444.666V261H445.75V270ZM447.203 266.771C447.203 266.15 447.324 265.592 447.566 265.096C447.812 264.6 448.152 264.217 448.586 263.947C449.023 263.678 449.521 263.543 450.08 263.543C450.943 263.543 451.641 263.842 452.172 264.439C452.707 265.037 452.975 265.832 452.975 266.824V266.9C452.975 267.518 452.855 268.072 452.617 268.564C452.383 269.053 452.045 269.434 451.604 269.707C451.166 269.98 450.662 270.117 450.092 270.117C449.232 270.117 448.535 269.818 448 269.221C447.469 268.623 447.203 267.832 447.203 266.848V266.771ZM448.293 266.9C448.293 267.604 448.455 268.168 448.779 268.594C449.107 269.02 449.545 269.232 450.092 269.232C450.643 269.232 451.08 269.018 451.404 268.588C451.729 268.154 451.891 267.549 451.891 266.771C451.891 266.076 451.725 265.514 451.393 265.084C451.064 264.65 450.627 264.434 450.08 264.434C449.545 264.434 449.113 264.646 448.785 265.072C448.457 265.498 448.293 266.107 448.293 266.9ZM458.025 268.318C458.025 268.025 457.914 267.799 457.691 267.639C457.473 267.475 457.088 267.334 456.537 267.217C455.99 267.1 455.555 266.959 455.23 266.795C454.91 266.631 454.672 266.436 454.516 266.209C454.363 265.982 454.287 265.713 454.287 265.4C454.287 264.881 454.506 264.441 454.943 264.082C455.385 263.723 455.947 263.543 456.631 263.543C457.35 263.543 457.932 263.729 458.377 264.1C458.826 264.471 459.051 264.945 459.051 265.523H457.961C457.961 265.227 457.834 264.971 457.58 264.756C457.33 264.541 457.014 264.434 456.631 264.434C456.236 264.434 455.928 264.52 455.705 264.691C455.482 264.863 455.371 265.088 455.371 265.365C455.371 265.627 455.475 265.824 455.682 265.957C455.889 266.09 456.262 266.217 456.801 266.338C457.344 266.459 457.783 266.604 458.119 266.771C458.455 266.939 458.703 267.143 458.863 267.381C459.027 267.615 459.109 267.902 459.109 268.242C459.109 268.809 458.883 269.264 458.43 269.607C457.977 269.947 457.389 270.117 456.666 270.117C456.158 270.117 455.709 270.027 455.318 269.848C454.928 269.668 454.621 269.418 454.398 269.098C454.18 268.773 454.07 268.424 454.07 268.049H455.154C455.174 268.412 455.318 268.701 455.588 268.916C455.861 269.127 456.221 269.232 456.666 269.232C457.076 269.232 457.404 269.15 457.65 268.986C457.9 268.818 458.025 268.596 458.025 268.318ZM463.152 270.117C462.293 270.117 461.594 269.836 461.055 269.273C460.516 268.707 460.246 267.951 460.246 267.006V266.807C460.246 266.178 460.365 265.617 460.604 265.125C460.846 264.629 461.182 264.242 461.611 263.965C462.045 263.684 462.514 263.543 463.018 263.543C463.842 263.543 464.482 263.814 464.939 264.357C465.396 264.9 465.625 265.678 465.625 266.689V267.141H461.33C461.346 267.766 461.527 268.271 461.875 268.658C462.227 269.041 462.672 269.232 463.211 269.232C463.594 269.232 463.918 269.154 464.184 268.998C464.449 268.842 464.682 268.635 464.881 268.377L465.543 268.893C465.012 269.709 464.215 270.117 463.152 270.117ZM463.018 264.434C462.58 264.434 462.213 264.594 461.916 264.914C461.619 265.23 461.436 265.676 461.365 266.25H464.541V266.168C464.51 265.617 464.361 265.191 464.096 264.891C463.83 264.586 463.471 264.434 463.018 264.434ZM437.266 280.9C437.266 281.869 437.043 282.648 436.598 283.238C436.152 283.824 435.555 284.117 434.805 284.117C434.004 284.117 433.385 283.834 432.947 283.268L432.895 284H431.898V275H432.982V278.357C433.42 277.814 434.023 277.543 434.793 277.543C435.562 277.543 436.166 277.834 436.604 278.416C437.045 278.998 437.266 279.795 437.266 280.807V280.9ZM436.182 280.777C436.182 280.039 436.039 279.469 435.754 279.066C435.469 278.664 435.059 278.463 434.523 278.463C433.809 278.463 433.295 278.795 432.982 279.459V282.201C433.314 282.865 433.832 283.197 434.535 283.197C435.055 283.197 435.459 282.996 435.748 282.594C436.037 282.191 436.182 281.586 436.182 280.777ZM439.814 284H438.73V275H439.814V284ZM444.186 284.117C443.326 284.117 442.627 283.836 442.088 283.273C441.549 282.707 441.279 281.951 441.279 281.006V280.807C441.279 280.178 441.398 279.617 441.637 279.125C441.879 278.629 442.215 278.242 442.645 277.965C443.078 277.684 443.547 277.543 444.051 277.543C444.875 277.543 445.516 277.814 445.973 278.357C446.43 278.9 446.658 279.678 446.658 280.689V281.141H442.363C442.379 281.766 442.561 282.271 442.908 282.658C443.26 283.041 443.705 283.232 444.244 283.232C444.627 283.232 444.951 283.154 445.217 282.998C445.482 282.842 445.715 282.635 445.914 282.377L446.576 282.893C446.045 283.709 445.248 284.117 444.186 284.117ZM444.051 278.434C443.613 278.434 443.246 278.594 442.949 278.914C442.652 279.23 442.469 279.676 442.398 280.25H445.574V280.168C445.543 279.617 445.395 279.191 445.129 278.891C444.863 278.586 444.504 278.434 444.051 278.434ZM448.943 277.66L448.979 278.457C449.463 277.848 450.096 277.543 450.877 277.543C452.217 277.543 452.893 278.299 452.904 279.811V284H451.82V279.805C451.816 279.348 451.711 279.01 451.504 278.791C451.301 278.572 450.982 278.463 450.549 278.463C450.197 278.463 449.889 278.557 449.623 278.744C449.357 278.932 449.15 279.178 449.002 279.482V284H447.918V277.66H448.943ZM454.275 280.777C454.275 279.805 454.506 279.023 454.967 278.434C455.428 277.84 456.031 277.543 456.777 277.543C457.52 277.543 458.107 277.797 458.541 278.305V275H459.625V284H458.629L458.576 283.32C458.143 283.852 457.539 284.117 456.766 284.117C456.031 284.117 455.432 283.816 454.967 283.215C454.506 282.613 454.275 281.828 454.275 280.859V280.777ZM455.359 280.9C455.359 281.619 455.508 282.182 455.805 282.588C456.102 282.994 456.512 283.197 457.035 283.197C457.723 283.197 458.225 282.889 458.541 282.271V279.359C458.217 278.762 457.719 278.463 457.047 278.463C456.516 278.463 456.102 278.668 455.805 279.078C455.508 279.488 455.359 280.096 455.359 280.9ZM463.943 284.117C463.084 284.117 462.385 283.836 461.846 283.273C461.307 282.707 461.037 281.951 461.037 281.006V280.807C461.037 280.178 461.156 279.617 461.395 279.125C461.637 278.629 461.973 278.242 462.402 277.965C462.836 277.684 463.305 277.543 463.809 277.543C464.633 277.543 465.273 277.814 465.73 278.357C466.188 278.9 466.416 279.678 466.416 280.689V281.141H462.121C462.137 281.766 462.318 282.271 462.666 282.658C463.018 283.041 463.463 283.232 464.002 283.232C464.385 283.232 464.709 283.154 464.975 282.998C465.24 282.842 465.473 282.635 465.672 282.377L466.334 282.893C465.803 283.709 465.006 284.117 463.943 284.117ZM463.809 278.434C463.371 278.434 463.004 278.594 462.707 278.914C462.41 279.23 462.227 279.676 462.156 280.25H465.332V280.168C465.301 279.617 465.152 279.191 464.887 278.891C464.621 278.586 464.262 278.434 463.809 278.434ZM470.74 278.633C470.576 278.605 470.398 278.592 470.207 278.592C469.496 278.592 469.014 278.895 468.76 279.5V284H467.676V277.66H468.73L468.748 278.393C469.104 277.826 469.607 277.543 470.26 277.543C470.471 277.543 470.631 277.57 470.74 277.625V278.633Z" fill="black"/>
<rect x="384.5" y="244.5" width="133" height="57" rx="4.5" stroke="black"/>
<rect x="210.5" y="354.5" width="133" height="57" rx="4.5" fill="white"/>
<path d="M260.629 377.773H257.055L256.252 380H255.092L258.35 371.469H259.334L262.598 380H261.443L260.629 377.773ZM257.395 376.848H260.295L258.842 372.857L257.395 376.848ZM263.312 376.777C263.312 375.805 263.543 375.023 264.004 374.434C264.465 373.84 265.068 373.543 265.814 373.543C266.557 373.543 267.145 373.797 267.578 374.305V371H268.662V380H267.666L267.613 379.32C267.18 379.852 266.576 380.117 265.803 380.117C265.068 380.117 264.469 379.816 264.004 379.215C263.543 378.613 263.312 377.828 263.312 376.859V376.777ZM264.396 376.9C264.396 377.619 264.545 378.182 264.842 378.588C265.139 378.994 265.549 379.197 266.072 379.197C266.76 379.197 267.262 378.889 267.578 378.271V375.359C267.254 374.762 266.756 374.463 266.084 374.463C265.553 374.463 265.139 374.668 264.842 375.078C264.545 375.488 264.396 376.096 264.396 376.9ZM270.086 376.777C270.086 375.805 270.316 375.023 270.777 374.434C271.238 373.84 271.842 373.543 272.588 373.543C273.33 373.543 273.918 373.797 274.352 374.305V371H275.436V380H274.439L274.387 379.32C273.953 379.852 273.35 380.117 272.576 380.117C271.842 380.117 271.242 379.816 270.777 379.215C270.316 378.613 270.086 377.828 270.086 376.859V376.777ZM271.17 376.9C271.17 377.619 271.318 378.182 271.615 378.588C271.912 378.994 272.322 379.197 272.846 379.197C273.533 379.197 274.035 378.889 274.352 378.271V375.359C274.027 374.762 273.529 374.463 272.857 374.463C272.326 374.463 271.912 374.668 271.615 375.078C271.318 375.488 271.17 376.096 271.17 376.9ZM281.57 372.125V373.66H282.754V374.498H281.57V378.43C281.57 378.684 281.623 378.875 281.729 379.004C281.834 379.129 282.014 379.191 282.268 379.191C282.393 379.191 282.564 379.168 282.783 379.121V380C282.498 380.078 282.221 380.117 281.951 380.117C281.467 380.117 281.102 379.971 280.855 379.678C280.609 379.385 280.486 378.969 280.486 378.43V374.498H279.332V373.66H280.486V372.125H281.57ZM289.639 378.506L290.857 373.66H291.941L290.096 380H289.217L287.676 375.195L286.176 380H285.297L283.457 373.66H284.535L285.783 378.406L287.26 373.66H288.133L289.639 378.506ZM292.762 376.771C292.762 376.15 292.883 375.592 293.125 375.096C293.371 374.6 293.711 374.217 294.145 373.947C294.582 373.678 295.08 373.543 295.639 373.543C296.502 373.543 297.199 373.842 297.73 374.439C298.266 375.037 298.533 375.832 298.533 376.824V376.9C298.533 377.518 298.414 378.072 298.176 378.564C297.941 379.053 297.604 379.434 297.162 379.707C296.725 379.98 296.221 380.117 295.65 380.117C294.791 380.117 294.094 379.818 293.559 379.221C293.027 378.623 292.762 377.832 292.762 376.848V376.771ZM293.852 376.9C293.852 377.604 294.014 378.168 294.338 378.594C294.666 379.02 295.104 379.232 295.65 379.232C296.201 379.232 296.639 379.018 296.963 378.588C297.287 378.154 297.449 377.549 297.449 376.771C297.449 376.076 297.283 375.514 296.951 375.084C296.623 374.65 296.186 374.434 295.639 374.434C295.104 374.434 294.672 374.646 294.344 375.072C294.016 375.498 293.852 376.107 293.852 376.9ZM258.18 393.232C258.566 393.232 258.904 393.115 259.193 392.881C259.482 392.646 259.643 392.354 259.674 392.002H260.699C260.68 392.365 260.555 392.711 260.324 393.039C260.094 393.367 259.785 393.629 259.398 393.824C259.016 394.02 258.609 394.117 258.18 394.117C257.316 394.117 256.629 393.83 256.117 393.256C255.609 392.678 255.355 391.889 255.355 390.889V390.707C255.355 390.09 255.469 389.541 255.695 389.061C255.922 388.58 256.246 388.207 256.668 387.941C257.094 387.676 257.596 387.543 258.174 387.543C258.885 387.543 259.475 387.756 259.943 388.182C260.416 388.607 260.668 389.16 260.699 389.84H259.674C259.643 389.43 259.486 389.094 259.205 388.832C258.928 388.566 258.584 388.434 258.174 388.434C257.623 388.434 257.195 388.633 256.891 389.031C256.59 389.426 256.439 389.998 256.439 390.748V390.953C256.439 391.684 256.59 392.246 256.891 392.641C257.191 393.035 257.621 393.232 258.18 393.232ZM265.832 393.373C265.41 393.869 264.791 394.117 263.975 394.117C263.299 394.117 262.783 393.922 262.428 393.531C262.076 393.137 261.898 392.555 261.895 391.785V387.66H262.979V391.756C262.979 392.717 263.369 393.197 264.15 393.197C264.979 393.197 265.529 392.889 265.803 392.271V387.66H266.887V394H265.855L265.832 393.373ZM273.895 390.9C273.895 391.865 273.674 392.643 273.232 393.232C272.791 393.822 272.193 394.117 271.439 394.117C270.67 394.117 270.064 393.873 269.623 393.385V396.438H268.539V387.66H269.529L269.582 388.363C270.023 387.816 270.637 387.543 271.422 387.543C272.184 387.543 272.785 387.83 273.227 388.404C273.672 388.979 273.895 389.777 273.895 390.801V390.9ZM272.811 390.777C272.811 390.062 272.658 389.498 272.354 389.084C272.049 388.67 271.631 388.463 271.1 388.463C270.443 388.463 269.951 388.754 269.623 389.336V392.365C269.947 392.943 270.443 393.232 271.111 393.232C271.631 393.232 272.043 393.027 272.348 392.617C272.656 392.203 272.811 391.59 272.811 390.777ZM278.969 392.318C278.969 392.025 278.857 391.799 278.635 391.639C278.416 391.475 278.031 391.334 277.48 391.217C276.934 391.1 276.498 390.959 276.174 390.795C275.854 390.631 275.615 390.436 275.459 390.209C275.307 389.982 275.23 389.713 275.23 389.4C275.23 388.881 275.449 388.441 275.887 388.082C276.328 387.723 276.891 387.543 277.574 387.543C278.293 387.543 278.875 387.729 279.32 388.1C279.77 388.471 279.994 388.945 279.994 389.523H278.904C278.904 389.227 278.777 388.971 278.523 388.756C278.273 388.541 277.957 388.434 277.574 388.434C277.18 388.434 276.871 388.52 276.648 388.691C276.426 388.863 276.314 389.088 276.314 389.365C276.314 389.627 276.418 389.824 276.625 389.957C276.832 390.09 277.205 390.217 277.744 390.338C278.287 390.459 278.727 390.604 279.062 390.771C279.398 390.939 279.646 391.143 279.807 391.381C279.971 391.615 280.053 391.902 280.053 392.242C280.053 392.809 279.826 393.264 279.373 393.607C278.92 393.947 278.332 394.117 277.609 394.117C277.102 394.117 276.652 394.027 276.262 393.848C275.871 393.668 275.564 393.418 275.342 393.098C275.123 392.773 275.014 392.424 275.014 392.049H276.098C276.117 392.412 276.262 392.701 276.531 392.916C276.805 393.127 277.164 393.232 277.609 393.232C278.02 393.232 278.348 393.15 278.594 392.986C278.844 392.818 278.969 392.596 278.969 392.318ZM285.619 394H284.535V387.66H285.619V394ZM284.447 385.979C284.447 385.803 284.5 385.654 284.605 385.533C284.715 385.412 284.875 385.352 285.086 385.352C285.297 385.352 285.457 385.412 285.566 385.533C285.676 385.654 285.73 385.803 285.73 385.979C285.73 386.154 285.676 386.301 285.566 386.418C285.457 386.535 285.297 386.594 285.086 386.594C284.875 386.594 284.715 386.535 284.605 386.418C284.5 386.301 284.447 386.154 284.447 385.979ZM289.902 393.232C290.289 393.232 290.627 393.115 290.916 392.881C291.205 392.646 291.365 392.354 291.396 392.002H292.422C292.402 392.365 292.277 392.711 292.047 393.039C291.816 393.367 291.508 393.629 291.121 393.824C290.738 394.02 290.332 394.117 289.902 394.117C289.039 394.117 288.352 393.83 287.84 393.256C287.332 392.678 287.078 391.889 287.078 390.889V390.707C287.078 390.09 287.191 389.541 287.418 389.061C287.645 388.58 287.969 388.207 288.391 387.941C288.816 387.676 289.318 387.543 289.896 387.543C290.607 387.543 291.197 387.756 291.666 388.182C292.139 388.607 292.391 389.16 292.422 389.84H291.396C291.365 389.43 291.209 389.094 290.928 388.832C290.65 388.566 290.307 388.434 289.896 388.434C289.346 388.434 288.918 388.633 288.613 389.031C288.312 389.426 288.162 389.998 288.162 390.748V390.953C288.162 391.684 288.312 392.246 288.613 392.641C288.914 393.035 289.344 393.232 289.902 393.232ZM296.271 394.117C295.412 394.117 294.713 393.836 294.174 393.273C293.635 392.707 293.365 391.951 293.365 391.006V390.807C293.365 390.178 293.484 389.617 293.723 389.125C293.965 388.629 294.301 388.242 294.73 387.965C295.164 387.684 295.633 387.543 296.137 387.543C296.961 387.543 297.602 387.814 298.059 388.357C298.516 388.9 298.744 389.678 298.744 390.689V391.141H294.449C294.465 391.766 294.646 392.271 294.994 392.658C295.346 393.041 295.791 393.232 296.33 393.232C296.713 393.232 297.037 393.154 297.303 392.998C297.568 392.842 297.801 392.635 298 392.377L298.662 392.893C298.131 393.709 297.334 394.117 296.271 394.117ZM296.137 388.434C295.699 388.434 295.332 388.594 295.035 388.914C294.738 389.23 294.555 389.676 294.484 390.25H297.66V390.168C297.629 389.617 297.48 389.191 297.215 388.891C296.949 388.586 296.59 388.434 296.137 388.434Z" fill="black"/>
<rect x="210.5" y="354.5" width="133" height="57" rx="4.5" stroke="black"/>
<rect x="210" y="467" width="134" height="58" rx="5" fill="white"/>
<path d="M265.627 496.197C264.662 495.92 263.959 495.58 263.518 495.178C263.08 494.771 262.861 494.271 262.861 493.678C262.861 493.006 263.129 492.451 263.664 492.014C264.203 491.572 264.902 491.352 265.762 491.352C266.348 491.352 266.869 491.465 267.326 491.691C267.787 491.918 268.143 492.23 268.393 492.629C268.646 493.027 268.773 493.463 268.773 493.936H267.643C267.643 493.42 267.479 493.016 267.15 492.723C266.822 492.426 266.359 492.277 265.762 492.277C265.207 492.277 264.773 492.4 264.461 492.646C264.152 492.889 263.998 493.227 263.998 493.66C263.998 494.008 264.145 494.303 264.438 494.545C264.734 494.783 265.236 495.002 265.943 495.201C266.654 495.4 267.209 495.621 267.607 495.863C268.01 496.102 268.307 496.381 268.498 496.701C268.693 497.021 268.791 497.398 268.791 497.832C268.791 498.523 268.521 499.078 267.982 499.496C267.443 499.91 266.723 500.117 265.82 500.117C265.234 500.117 264.688 500.006 264.18 499.783C263.672 499.557 263.279 499.248 263.002 498.857C262.729 498.467 262.592 498.023 262.592 497.527H263.723C263.723 498.043 263.912 498.451 264.291 498.752C264.674 499.049 265.184 499.197 265.82 499.197C266.414 499.197 266.869 499.076 267.186 498.834C267.502 498.592 267.66 498.262 267.66 497.844C267.66 497.426 267.514 497.104 267.221 496.877C266.928 496.646 266.396 496.42 265.627 496.197ZM272.699 500.117C271.84 500.117 271.141 499.836 270.602 499.273C270.062 498.707 269.793 497.951 269.793 497.006V496.807C269.793 496.178 269.912 495.617 270.15 495.125C270.393 494.629 270.729 494.242 271.158 493.965C271.592 493.684 272.061 493.543 272.564 493.543C273.389 493.543 274.029 493.814 274.486 494.357C274.943 494.9 275.172 495.678 275.172 496.689V497.141H270.877C270.893 497.766 271.074 498.271 271.422 498.658C271.773 499.041 272.219 499.232 272.758 499.232C273.141 499.232 273.465 499.154 273.73 498.998C273.996 498.842 274.229 498.635 274.428 498.377L275.09 498.893C274.559 499.709 273.762 500.117 272.699 500.117ZM272.564 494.434C272.127 494.434 271.76 494.594 271.463 494.914C271.166 495.23 270.982 495.676 270.912 496.25H274.088V496.168C274.057 495.617 273.908 495.191 273.643 494.891C273.377 494.586 273.018 494.434 272.564 494.434ZM279.496 494.633C279.332 494.605 279.154 494.592 278.963 494.592C278.252 494.592 277.77 494.895 277.516 495.5V500H276.432V493.66H277.486L277.504 494.393C277.859 493.826 278.363 493.543 279.016 493.543C279.227 493.543 279.387 493.57 279.496 493.625V494.633ZM282.695 498.529L284.266 493.66H285.373L283.1 500H282.273L279.977 493.66H281.084L282.695 498.529ZM288.965 500.117C288.105 500.117 287.406 499.836 286.867 499.273C286.328 498.707 286.059 497.951 286.059 497.006V496.807C286.059 496.178 286.178 495.617 286.416 495.125C286.658 494.629 286.994 494.242 287.424 493.965C287.857 493.684 288.326 493.543 288.83 493.543C289.654 493.543 290.295 493.814 290.752 494.357C291.209 494.9 291.438 495.678 291.438 496.689V497.141H287.143C287.158 497.766 287.34 498.271 287.688 498.658C288.039 499.041 288.484 499.232 289.023 499.232C289.406 499.232 289.73 499.154 289.996 498.998C290.262 498.842 290.494 498.635 290.693 498.377L291.355 498.893C290.824 499.709 290.027 500.117 288.965 500.117ZM288.83 494.434C288.393 494.434 288.025 494.594 287.729 494.914C287.432 495.23 287.248 495.676 287.178 496.25H290.354V496.168C290.322 495.617 290.174 495.191 289.908 494.891C289.643 494.586 289.283 494.434 288.83 494.434Z" fill="black"/>
<rect x="384.5" y="354.5" width="133" height="57" rx="4.5" fill="white"/>
<path d="M436.914 387V378.469H439.703C440.629 378.469 441.324 378.66 441.789 379.043C442.258 379.426 442.492 379.992 442.492 380.742C442.492 381.141 442.379 381.494 442.152 381.803C441.926 382.107 441.617 382.344 441.227 382.512C441.688 382.641 442.051 382.887 442.316 383.25C442.586 383.609 442.721 384.039 442.721 384.539C442.721 385.305 442.473 385.906 441.977 386.344C441.48 386.781 440.779 387 439.873 387H436.914ZM438.039 383.01V386.08H439.896C440.42 386.08 440.832 385.945 441.133 385.676C441.438 385.402 441.59 385.027 441.59 384.551C441.59 383.523 441.031 383.01 439.914 383.01H438.039ZM438.039 382.107H439.738C440.23 382.107 440.623 381.984 440.916 381.738C441.213 381.492 441.361 381.158 441.361 380.736C441.361 380.268 441.225 379.928 440.951 379.717C440.678 379.502 440.262 379.395 439.703 379.395H438.039V382.107ZM445.398 387H444.314V378H445.398V387ZM449.77 387.117C448.91 387.117 448.211 386.836 447.672 386.273C447.133 385.707 446.863 384.951 446.863 384.006V383.807C446.863 383.178 446.982 382.617 447.221 382.125C447.463 381.629 447.799 381.242 448.229 380.965C448.662 380.684 449.131 380.543 449.635 380.543C450.459 380.543 451.1 380.814 451.557 381.357C452.014 381.9 452.242 382.678 452.242 383.689V384.141H447.947C447.963 384.766 448.145 385.271 448.492 385.658C448.844 386.041 449.289 386.232 449.828 386.232C450.211 386.232 450.535 386.154 450.801 385.998C451.066 385.842 451.299 385.635 451.498 385.377L452.16 385.893C451.629 386.709 450.832 387.117 449.77 387.117ZM449.635 381.434C449.197 381.434 448.83 381.594 448.533 381.914C448.236 382.23 448.053 382.676 447.982 383.25H451.158V383.168C451.127 382.617 450.979 382.191 450.713 381.891C450.447 381.586 450.088 381.434 449.635 381.434ZM454.527 380.66L454.562 381.457C455.047 380.848 455.68 380.543 456.461 380.543C457.801 380.543 458.477 381.299 458.488 382.811V387H457.404V382.805C457.4 382.348 457.295 382.01 457.088 381.791C456.885 381.572 456.566 381.463 456.133 381.463C455.781 381.463 455.473 381.557 455.207 381.744C454.941 381.932 454.734 382.178 454.586 382.482V387H453.502V380.66H454.527ZM459.859 383.777C459.859 382.805 460.09 382.023 460.551 381.434C461.012 380.84 461.615 380.543 462.361 380.543C463.104 380.543 463.691 380.797 464.125 381.305V378H465.209V387H464.213L464.16 386.32C463.727 386.852 463.123 387.117 462.35 387.117C461.615 387.117 461.016 386.816 460.551 386.215C460.09 385.613 459.859 384.828 459.859 383.859V383.777ZM460.943 383.9C460.943 384.619 461.092 385.182 461.389 385.588C461.686 385.994 462.096 386.197 462.619 386.197C463.307 386.197 463.809 385.889 464.125 385.271V382.359C463.801 381.762 463.303 381.463 462.631 381.463C462.1 381.463 461.686 381.668 461.389 382.078C461.092 382.488 460.943 383.096 460.943 383.9Z" fill="black"/>
<rect x="384.5" y="354.5" width="133" height="57" rx="4.5" stroke="black"/>
<rect x="36.5" y="354.5" width="133" height="57" rx="4.5" fill="white"/>
<path d="M78.6133 376.66V380H77.4883V371.469H80.6348C81.5684 371.469 82.2988 371.707 82.8262 372.184C83.3574 372.66 83.623 373.291 83.623 374.076C83.623 374.904 83.3633 375.543 82.8438 375.992C82.3281 376.438 81.5879 376.66 80.623 376.66H78.6133ZM78.6133 375.74H80.6348C81.2363 375.74 81.6973 375.6 82.0176 375.318C82.3379 375.033 82.498 374.623 82.498 374.088C82.498 373.58 82.3379 373.174 82.0176 372.869C81.6973 372.564 81.2578 372.406 80.6992 372.395H78.6133V375.74ZM88.8027 379.373C88.3809 379.869 87.7617 380.117 86.9453 380.117C86.2695 380.117 85.7539 379.922 85.3984 379.531C85.0469 379.137 84.8691 378.555 84.8652 377.785V373.66H85.9492V377.756C85.9492 378.717 86.3398 379.197 87.1211 379.197C87.9492 379.197 88.5 378.889 88.7734 378.271V373.66H89.8574V380H88.8262L88.8027 379.373ZM92.9805 372.125V373.66H94.1641V374.498H92.9805V378.43C92.9805 378.684 93.0332 378.875 93.1387 379.004C93.2441 379.129 93.4238 379.191 93.6777 379.191C93.8027 379.191 93.9746 379.168 94.1934 379.121V380C93.9082 380.078 93.6309 380.117 93.3613 380.117C92.877 380.117 92.5117 379.971 92.2656 379.678C92.0195 379.385 91.8965 378.969 91.8965 378.43V374.498H90.7422V373.66H91.8965V372.125H92.9805ZM99.4316 373.66L99.4609 374.363C99.9258 373.816 100.553 373.543 101.342 373.543C102.229 373.543 102.832 373.883 103.152 374.562C103.363 374.258 103.637 374.012 103.973 373.824C104.312 373.637 104.713 373.543 105.174 373.543C106.564 373.543 107.271 374.279 107.295 375.752V380H106.211V375.816C106.211 375.363 106.107 375.025 105.9 374.803C105.693 374.576 105.346 374.463 104.857 374.463C104.455 374.463 104.121 374.584 103.855 374.826C103.59 375.064 103.436 375.387 103.393 375.793V380H102.303V375.846C102.303 374.924 101.852 374.463 100.949 374.463C100.238 374.463 99.752 374.766 99.4902 375.371V380H98.4062V373.66H99.4316ZM110.113 380H109.029V373.66H110.113V380ZM108.941 371.979C108.941 371.803 108.994 371.654 109.1 371.533C109.209 371.412 109.369 371.352 109.58 371.352C109.791 371.352 109.951 371.412 110.061 371.533C110.17 371.654 110.225 371.803 110.225 371.979C110.225 372.154 110.17 372.301 110.061 372.418C109.951 372.535 109.791 372.594 109.58 372.594C109.369 372.594 109.209 372.535 109.1 372.418C108.994 372.301 108.941 372.154 108.941 371.979ZM113.98 375.975L115.387 373.66H116.652L114.578 376.795L116.717 380H115.463L113.998 377.627L112.533 380H111.273L113.412 376.795L111.338 373.66H112.592L113.98 375.975ZM121.961 380H120.877V373.66H121.961V380ZM120.789 371.979C120.789 371.803 120.842 371.654 120.947 371.533C121.057 371.412 121.217 371.352 121.428 371.352C121.639 371.352 121.799 371.412 121.908 371.533C122.018 371.654 122.072 371.803 122.072 371.979C122.072 372.154 122.018 372.301 121.908 372.418C121.799 372.535 121.639 372.594 121.428 372.594C121.217 372.594 121.057 372.535 120.947 372.418C120.842 372.301 120.789 372.154 120.789 371.979ZM124.727 373.66L124.762 374.457C125.246 373.848 125.879 373.543 126.66 373.543C128 373.543 128.676 374.299 128.688 375.811V380H127.604V375.805C127.6 375.348 127.494 375.01 127.287 374.791C127.084 374.572 126.766 374.463 126.332 374.463C125.98 374.463 125.672 374.557 125.406 374.744C125.141 374.932 124.934 375.178 124.785 375.482V380H123.701V373.66H124.727ZM89.2656 390.9C89.2656 391.869 89.043 392.648 88.5977 393.238C88.1523 393.824 87.5547 394.117 86.8047 394.117C86.0039 394.117 85.3848 393.834 84.9473 393.268L84.8945 394H83.8984V385H84.9824V388.357C85.4199 387.814 86.0234 387.543 86.793 387.543C87.5625 387.543 88.166 387.834 88.6035 388.416C89.0449 388.998 89.2656 389.795 89.2656 390.807V390.9ZM88.1816 390.777C88.1816 390.039 88.0391 389.469 87.7539 389.066C87.4688 388.664 87.0586 388.463 86.5234 388.463C85.8086 388.463 85.2949 388.795 84.9824 389.459V392.201C85.3145 392.865 85.832 393.197 86.5352 393.197C87.0547 393.197 87.459 392.996 87.748 392.594C88.0371 392.191 88.1816 391.586 88.1816 390.777ZM91.8145 394H90.7305V385H91.8145V394ZM96.1855 394.117C95.3262 394.117 94.627 393.836 94.0879 393.273C93.5488 392.707 93.2793 391.951 93.2793 391.006V390.807C93.2793 390.178 93.3984 389.617 93.6367 389.125C93.8789 388.629 94.2148 388.242 94.6445 387.965C95.0781 387.684 95.5469 387.543 96.0508 387.543C96.875 387.543 97.5156 387.814 97.9727 388.357C98.4297 388.9 98.6582 389.678 98.6582 390.689V391.141H94.3633C94.3789 391.766 94.5605 392.271 94.9082 392.658C95.2598 393.041 95.7051 393.232 96.2441 393.232C96.627 393.232 96.9512 393.154 97.2168 392.998C97.4824 392.842 97.7148 392.635 97.9141 392.377L98.5762 392.893C98.0449 393.709 97.248 394.117 96.1855 394.117ZM96.0508 388.434C95.6133 388.434 95.2461 388.594 94.9492 388.914C94.6523 389.23 94.4688 389.676 94.3984 390.25H97.5742V390.168C97.543 389.617 97.3945 389.191 97.1289 388.891C96.8633 388.586 96.5039 388.434 96.0508 388.434ZM100.943 387.66L100.979 388.457C101.463 387.848 102.096 387.543 102.877 387.543C104.217 387.543 104.893 388.299 104.904 389.811V394H103.82V389.805C103.816 389.348 103.711 389.01 103.504 388.791C103.301 388.572 102.982 388.463 102.549 388.463C102.197 388.463 101.889 388.557 101.623 388.744C101.357 388.932 101.15 389.178 101.002 389.482V394H99.918V387.66H100.943ZM106.275 390.777C106.275 389.805 106.506 389.023 106.967 388.434C107.428 387.84 108.031 387.543 108.777 387.543C109.52 387.543 110.107 387.797 110.541 388.305V385H111.625V394H110.629L110.576 393.32C110.143 393.852 109.539 394.117 108.766 394.117C108.031 394.117 107.432 393.816 106.967 393.215C106.506 392.613 106.275 391.828 106.275 390.859V390.777ZM107.359 390.9C107.359 391.619 107.508 392.182 107.805 392.588C108.102 392.994 108.512 393.197 109.035 393.197C109.723 393.197 110.225 392.889 110.541 392.271V389.359C110.217 388.762 109.719 388.463 109.047 388.463C108.516 388.463 108.102 388.668 107.805 389.078C107.508 389.488 107.359 390.096 107.359 390.9ZM115.943 394.117C115.084 394.117 114.385 393.836 113.846 393.273C113.307 392.707 113.037 391.951 113.037 391.006V390.807C113.037 390.178 113.156 389.617 113.395 389.125C113.637 388.629 113.973 388.242 114.402 387.965C114.836 387.684 115.305 387.543 115.809 387.543C116.633 387.543 117.273 387.814 117.73 388.357C118.188 388.9 118.416 389.678 118.416 390.689V391.141H114.121C114.137 391.766 114.318 392.271 114.666 392.658C115.018 393.041 115.463 393.232 116.002 393.232C116.385 393.232 116.709 393.154 116.975 392.998C117.24 392.842 117.473 392.635 117.672 392.377L118.334 392.893C117.803 393.709 117.006 394.117 115.943 394.117ZM115.809 388.434C115.371 388.434 115.004 388.594 114.707 388.914C114.41 389.23 114.227 389.676 114.156 390.25H117.332V390.168C117.301 389.617 117.152 389.191 116.887 388.891C116.621 388.586 116.262 388.434 115.809 388.434ZM122.74 388.633C122.576 388.605 122.398 388.592 122.207 388.592C121.496 388.592 121.014 388.895 120.76 389.5V394H119.676V387.66H120.73L120.748 388.393C121.104 387.826 121.607 387.543 122.26 387.543C122.471 387.543 122.631 387.57 122.74 387.625V388.633Z" fill="black"/>
<rect x="36.5" y="354.5" width="133" height="57" rx="4.5" stroke="black"/>
<rect x="384.5" y="0.5" width="133" height="57" rx="4.5" fill="white"/>
<path d="M417.943 17.4688L420.732 24.4297L423.521 17.4688H424.98V26H423.855V22.6777L423.961 19.0918L421.16 26H420.299L417.504 19.1094L417.615 22.6777V26H416.49V17.4688H417.943ZM429.428 26.1172C428.568 26.1172 427.869 25.8359 427.33 25.2734C426.791 24.707 426.521 23.9512 426.521 23.0059V22.8066C426.521 22.1777 426.641 21.6172 426.879 21.125C427.121 20.6289 427.457 20.2422 427.887 19.9648C428.32 19.6836 428.789 19.543 429.293 19.543C430.117 19.543 430.758 19.8145 431.215 20.3574C431.672 20.9004 431.9 21.6777 431.9 22.6895V23.1406H427.605C427.621 23.7656 427.803 24.2715 428.15 24.6582C428.502 25.041 428.947 25.2324 429.486 25.2324C429.869 25.2324 430.193 25.1543 430.459 24.998C430.725 24.8418 430.957 24.6348 431.156 24.377L431.818 24.8926C431.287 25.709 430.49 26.1172 429.428 26.1172ZM429.293 20.4336C428.855 20.4336 428.488 20.5938 428.191 20.9141C427.895 21.2305 427.711 21.6758 427.641 22.25H430.816V22.168C430.785 21.6172 430.637 21.1914 430.371 20.8906C430.105 20.5859 429.746 20.4336 429.293 20.4336ZM437.074 26C437.012 25.875 436.961 25.6523 436.922 25.332C436.418 25.8555 435.816 26.1172 435.117 26.1172C434.492 26.1172 433.979 25.9414 433.576 25.5898C433.178 25.2344 432.979 24.7852 432.979 24.2422C432.979 23.582 433.229 23.0703 433.729 22.707C434.232 22.3398 434.939 22.1562 435.85 22.1562H436.904V21.6582C436.904 21.2793 436.791 20.9785 436.564 20.7559C436.338 20.5293 436.004 20.416 435.562 20.416C435.176 20.416 434.852 20.5137 434.59 20.709C434.328 20.9043 434.197 21.1406 434.197 21.418H433.107C433.107 21.1016 433.219 20.7969 433.441 20.5039C433.668 20.207 433.973 19.9727 434.355 19.8008C434.742 19.6289 435.166 19.543 435.627 19.543C436.357 19.543 436.93 19.7266 437.344 20.0938C437.758 20.457 437.973 20.959 437.988 21.5996V24.5176C437.988 25.0996 438.062 25.5625 438.211 25.9062V26H437.074ZM435.275 25.1738C435.615 25.1738 435.938 25.0859 436.242 24.9102C436.547 24.7344 436.768 24.5059 436.904 24.2246V22.9238H436.055C434.727 22.9238 434.062 23.3125 434.062 24.0898C434.062 24.4297 434.176 24.6953 434.402 24.8867C434.629 25.0781 434.92 25.1738 435.275 25.1738ZM443.379 24.3184C443.379 24.0254 443.268 23.7988 443.045 23.6387C442.826 23.4746 442.441 23.334 441.891 23.2168C441.344 23.0996 440.908 22.959 440.584 22.7949C440.264 22.6309 440.025 22.4355 439.869 22.209C439.717 21.9824 439.641 21.7129 439.641 21.4004C439.641 20.8809 439.859 20.4414 440.297 20.082C440.738 19.7227 441.301 19.543 441.984 19.543C442.703 19.543 443.285 19.7285 443.73 20.0996C444.18 20.4707 444.404 20.9453 444.404 21.5234H443.314C443.314 21.2266 443.188 20.9707 442.934 20.7559C442.684 20.541 442.367 20.4336 441.984 20.4336C441.59 20.4336 441.281 20.5195 441.059 20.6914C440.836 20.8633 440.725 21.0879 440.725 21.3652C440.725 21.627 440.828 21.8242 441.035 21.957C441.242 22.0898 441.615 22.2168 442.154 22.3379C442.697 22.459 443.137 22.6035 443.473 22.7715C443.809 22.9395 444.057 23.1426 444.217 23.3809C444.381 23.6152 444.463 23.9023 444.463 24.2422C444.463 24.8086 444.236 25.2637 443.783 25.6074C443.33 25.9473 442.742 26.1172 442.02 26.1172C441.512 26.1172 441.062 26.0273 440.672 25.8477C440.281 25.668 439.975 25.418 439.752 25.0977C439.533 24.7734 439.424 24.4238 439.424 24.0488H440.508C440.527 24.4121 440.672 24.7012 440.941 24.916C441.215 25.127 441.574 25.2324 442.02 25.2324C442.43 25.2324 442.758 25.1504 443.004 24.9863C443.254 24.8184 443.379 24.5957 443.379 24.3184ZM449.789 25.373C449.367 25.8691 448.748 26.1172 447.932 26.1172C447.256 26.1172 446.74 25.9219 446.385 25.5312C446.033 25.1367 445.855 24.5547 445.852 23.7852V19.6602H446.936V23.7559C446.936 24.7168 447.326 25.1973 448.107 25.1973C448.936 25.1973 449.486 24.8887 449.76 24.2715V19.6602H450.844V26H449.812L449.789 25.373ZM455.561 20.6328C455.396 20.6055 455.219 20.5918 455.027 20.5918C454.316 20.5918 453.834 20.8945 453.58 21.5V26H452.496V19.6602H453.551L453.568 20.3926C453.924 19.8262 454.428 19.543 455.08 19.543C455.291 19.543 455.451 19.5703 455.561 19.625V20.6328ZM459.076 26.1172C458.217 26.1172 457.518 25.8359 456.979 25.2734C456.439 24.707 456.17 23.9512 456.17 23.0059V22.8066C456.17 22.1777 456.289 21.6172 456.527 21.125C456.77 20.6289 457.105 20.2422 457.535 19.9648C457.969 19.6836 458.438 19.543 458.941 19.543C459.766 19.543 460.406 19.8145 460.863 20.3574C461.32 20.9004 461.549 21.6777 461.549 22.6895V23.1406H457.254C457.27 23.7656 457.451 24.2715 457.799 24.6582C458.15 25.041 458.596 25.2324 459.135 25.2324C459.518 25.2324 459.842 25.1543 460.107 24.998C460.373 24.8418 460.605 24.6348 460.805 24.377L461.467 24.8926C460.936 25.709 460.139 26.1172 459.076 26.1172ZM458.941 20.4336C458.504 20.4336 458.137 20.5938 457.84 20.9141C457.543 21.2305 457.359 21.6758 457.289 22.25H460.465V22.168C460.434 21.6172 460.285 21.1914 460.02 20.8906C459.754 20.5859 459.395 20.4336 458.941 20.4336ZM468.85 20.6328C468.686 20.6055 468.508 20.5918 468.316 20.5918C467.605 20.5918 467.123 20.8945 466.869 21.5V26H465.785V19.6602H466.84L466.857 20.3926C467.213 19.8262 467.717 19.543 468.369 19.543C468.58 19.543 468.74 19.5703 468.85 19.625V20.6328ZM473.766 25.373C473.344 25.8691 472.725 26.1172 471.908 26.1172C471.232 26.1172 470.717 25.9219 470.361 25.5312C470.01 25.1367 469.832 24.5547 469.828 23.7852V19.6602H470.912V23.7559C470.912 24.7168 471.303 25.1973 472.084 25.1973C472.912 25.1973 473.463 24.8887 473.736 24.2715V19.6602H474.82V26H473.789L473.766 25.373ZM477.492 19.6602L477.521 20.3633C477.986 19.8164 478.613 19.543 479.402 19.543C480.289 19.543 480.893 19.8828 481.213 20.5625C481.424 20.2578 481.697 20.0117 482.033 19.8242C482.373 19.6367 482.773 19.543 483.234 19.543C484.625 19.543 485.332 20.2793 485.355 21.752V26H484.271V21.8164C484.271 21.3633 484.168 21.0254 483.961 20.8027C483.754 20.5762 483.406 20.4629 482.918 20.4629C482.516 20.4629 482.182 20.584 481.916 20.8262C481.65 21.0645 481.496 21.3867 481.453 21.793V26H480.363V21.8457C480.363 20.9238 479.912 20.4629 479.01 20.4629C478.299 20.4629 477.812 20.7656 477.551 21.3711V26H476.467V19.6602H477.492Z" fill="black"/>
<rect x="384.5" y="0.5" width="133" height="57" rx="4.5" stroke="black"/>
<path d="M210 24.5C207.5 24.5 205.5 26.5 205.5 29C205.5 31.5 207.5 33.5 210 33.5C212.5 33.5 214.5 31.5 214.5 29C214.5 26.5 212.5 24.5 210 24.5Z" fill="white"/>
<path d="M207 29C207 27.3284 208.328 26 210 26V23C206.672 23 204 25.6716 204 29H207ZM210 26C211.672 26 213 27.3284 213 29H216C216 25.6716 213.328 23 210 23V26ZM213 29C213 30.6716 211.672 32 210 32V35C213.328 35 216 32.3284 216 29H213ZM210 32C208.328 32 207 30.6716 207 29H204C204 32.3284 206.672 35 210 35V32ZM188.5 44.5V131H191.5V44.5H188.5ZM188.5 131C188.5 141.217 180.217 149.5 170 149.5V152.5C181.874 152.5 191.5 142.874 191.5 131H188.5ZM205.5 27.5C196.111 27.5 188.5 35.1112 188.5 44.5H191.5C191.5 36.768 197.768 30.5 205.5 30.5V27.5Z" fill="black"/>
<path d="M103 53.5C100.5 53.5 98.5 55.5 98.5 58C98.5 60.5 100.5 62.5 103 62.5C105.5 62.5 107.5 60.5 107.5 58C107.5 55.5 105.5 53.5 103 53.5Z" fill="white"/>
<path d="M101.939 123.061C102.525 123.646 103.475 123.646 104.061 123.061L113.607 113.515C114.192 112.929 114.192 111.979 113.607 111.393C113.021 110.808 112.071 110.808 111.485 111.393L103 119.879L94.5147 111.393C93.9289 110.808 92.9792 110.808 92.3934 111.393C91.8076 111.979 91.8076 112.929 92.3934 113.515L101.939 123.061ZM100 58C100 56.3284 101.328 55 103 55V52C99.6716 52 97 54.6716 97 58H100ZM103 55C104.672 55 106 56.3284 106 58H109C109 54.6716 106.328 52 103 52V55ZM106 58C106 59.6716 104.672 61 103 61V64C106.328 64 109 61.3284 109 58H106ZM103 61C101.328 61 100 59.6716 100 58H97C97 61.3284 99.6716 64 103 64V61ZM101.5 62.5V122H104.5V62.5H101.5Z" fill="black"/>
<path d="M277 53.5C274.5 53.5 272.5 55.5 272.5 58C272.5 60.5 274.5 62.5 277 62.5C279.5 62.5 281.5 60.5 281.5 58C281.5 55.5 279.5 53.5 277 53.5Z" fill="white"/>
<path d="M275.939 123.061C276.525 123.646 277.475 123.646 278.061 123.061L287.607 113.515C288.192 112.929 288.192 111.979 287.607 111.393C287.021 110.808 286.071 110.808 285.485 111.393L277 119.879L268.515 111.393C267.929 110.808 266.979 110.808 266.393 111.393C265.808 111.979 265.808 112.929 266.393 113.515L275.939 123.061ZM274 58C274 56.3284 275.328 55 277 55V52C273.672 52 271 54.6716 271 58H274ZM277 55C278.672 55 280 56.3284 280 58H283C283 54.6716 280.328 52 277 52V55ZM280 58C280 59.6716 278.672 61 277 61V64C280.328 64 283 61.3284 283 58H280ZM277 61C275.328 61 274 59.6716 274 58H271C271 61.3284 273.672 64 277 64V61ZM275.5 62.5V122H278.5V62.5H275.5Z" fill="black"/>
<path d="M451 53.5C448.5 53.5 446.5 55.5 446.5 58C446.5 60.5 448.5 62.5 451 62.5C453.5 62.5 455.5 60.5 455.5 58C455.5 55.5 453.5 53.5 451 53.5Z" fill="white"/>
<path d="M449.939 123.061C450.525 123.646 451.475 123.646 452.061 123.061L461.607 113.515C462.192 112.929 462.192 111.979 461.607 111.393C461.021 110.808 460.071 110.808 459.485 111.393L451 119.879L442.515 111.393C441.929 110.808 440.979 110.808 440.393 111.393C439.808 111.979 439.808 112.929 440.393 113.515L449.939 123.061ZM448 58C448 56.3284 449.328 55 451 55V52C447.672 52 445 54.6716 445 58H448ZM451 55C452.672 55 454 56.3284 454 58H457C457 54.6716 454.328 52 451 52V55ZM454 58C454 59.6716 452.672 61 451 61V64C454.328 64 457 61.3284 457 58H454ZM451 61C449.328 61 448 59.6716 448 58H445C445 61.3284 447.672 64 451 64V61ZM449.5 62.5V122H452.5V62.5H449.5Z" fill="black"/>
<path d="M451 175.5C448.5 175.5 446.5 177.5 446.5 180C446.5 182.5 448.5 184.5 451 184.5C453.5 184.5 455.5 182.5 455.5 180C455.5 177.5 453.5 175.5 451 175.5Z" fill="white"/>
<path d="M449.939 245.061C450.525 245.646 451.475 245.646 452.061 245.061L461.607 235.515C462.192 234.929 462.192 233.979 461.607 233.393C461.021 232.808 460.071 232.808 459.485 233.393L451 241.879L442.515 233.393C441.929 232.808 440.979 232.808 440.393 233.393C439.808 233.979 439.808 234.929 440.393 235.515L449.939 245.061ZM448 180C448 178.328 449.328 177 451 177V174C447.672 174 445 176.672 445 180H448ZM451 177C452.672 177 454 178.328 454 180H457C457 176.672 454.328 174 451 174V177ZM454 180C454 181.672 452.672 183 451 183V186C454.328 186 457 183.328 457 180H454ZM451 183C449.328 183 448 181.672 448 180H445C445 183.328 447.672 186 451 186V183ZM449.5 184.5V244H452.5V184.5H449.5Z" fill="black"/>
<path d="M451 297.5C448.5 297.5 446.5 299.5 446.5 302C446.5 304.5 448.5 306.5 451 306.5C453.5 306.5 455.5 304.5 455.5 302C455.5 299.5 453.5 297.5 451 297.5Z" fill="white"/>
<path d="M449.939 355.061C450.525 355.646 451.475 355.646 452.061 355.061L461.607 345.515C462.192 344.929 462.192 343.979 461.607 343.393C461.021 342.808 460.071 342.808 459.485 343.393L451 351.879L442.515 343.393C441.929 342.808 440.979 342.808 440.393 343.393C439.808 343.979 439.808 344.929 440.393 345.515L449.939 355.061ZM448 302C448 300.328 449.328 299 451 299V296C447.672 296 445 298.672 445 302H448ZM451 299C452.672 299 454 300.328 454 302H457C457 298.672 454.328 296 451 296V299ZM454 302C454 303.672 452.672 305 451 305V308C454.328 308 457 305.328 457 302H454ZM451 305C449.328 305 448 303.672 448 302H445C445 305.328 447.672 308 451 308V305ZM449.5 306.5V354H452.5V306.5H449.5Z" fill="black"/>
<path d="M277 407.5C274.5 407.5 272.5 409.5 272.5 412C272.5 414.5 274.5 416.5 277 416.5C279.5 416.5 281.5 414.5 281.5 412C281.5 409.5 279.5 407.5 277 407.5Z" fill="white"/>
<path d="M275.939 468.061C276.525 468.646 277.475 468.646 278.061 468.061L287.607 458.515C288.192 457.929 288.192 456.979 287.607 456.393C287.021 455.808 286.071 455.808 285.485 456.393L277 464.879L268.515 456.393C267.929 455.808 266.979 455.808 266.393 456.393C265.808 456.979 265.808 457.929 266.393 458.515L275.939 468.061ZM274 412C274 410.328 275.328 409 277 409V406C273.672 406 271 408.672 271 412H274ZM277 409C278.672 409 280 410.328 280 412H283C283 408.672 280.328 406 277 406V409ZM280 412C280 413.672 278.672 415 277 415V418C280.328 418 283 415.328 283 412H280ZM277 415C275.328 415 274 413.672 274 412H271C271 415.328 273.672 418 277 418V415ZM275.5 416.5V467H278.5V416.5H275.5Z" fill="black"/>
<line y1="434.5" x2="537" y2="434.5" stroke="black" stroke-width="5"/>
<line y1="214.5" x2="537" y2="214.5" stroke="black" stroke-width="5"/>
</svg>
