<svg width="756" height="661" viewBox="0 0 756 661" fill="none" xmlns="http://www.w3.org/2000/svg">
<path d="M175 93V107C175 128.539 192.461 146 214 146V146" stroke="black" stroke-width="2"/>
<path d="M191 122L215 146L191 170" stroke="black" stroke-width="2"/>
<rect x="88" y="13" width="160" height="80" fill="black"/>
<path d="M160.297 53.9766H155.523V59H154.023V47.625H161.07V48.8594H155.523V52.75H160.297V53.9766ZM164.211 59H162.766V50.5469H164.211V59ZM162.648 48.3047C162.648 48.0703 162.719 47.8724 162.859 47.7109C163.005 47.5495 163.219 47.4688 163.5 47.4688C163.781 47.4688 163.995 47.5495 164.141 47.7109C164.286 47.8724 164.359 48.0703 164.359 48.3047C164.359 48.5391 164.286 48.7344 164.141 48.8906C163.995 49.0469 163.781 49.125 163.5 49.125C163.219 49.125 163.005 49.0469 162.859 48.8906C162.719 48.7344 162.648 48.5391 162.648 48.3047ZM167.898 50.5469L167.945 51.6094C168.591 50.7969 169.435 50.3906 170.477 50.3906C172.263 50.3906 173.164 51.3984 173.18 53.4141V59H171.734V53.4062C171.729 52.7969 171.589 52.3464 171.312 52.0547C171.042 51.763 170.617 51.6172 170.039 51.6172C169.57 51.6172 169.159 51.7422 168.805 51.9922C168.451 52.2422 168.174 52.5703 167.977 52.9766V59H166.531V50.5469H167.898ZM175.008 54.7031C175.008 53.4062 175.315 52.3646 175.93 51.5781C176.544 50.7865 177.349 50.3906 178.344 50.3906C179.333 50.3906 180.117 50.7292 180.695 51.4062V47H182.141V59H180.812L180.742 58.0938C180.164 58.8021 179.359 59.1562 178.328 59.1562C177.349 59.1562 176.549 58.7552 175.93 57.9531C175.315 57.151 175.008 56.1042 175.008 54.8125V54.7031ZM176.453 54.8672C176.453 55.8255 176.651 56.5755 177.047 57.1172C177.443 57.6589 177.99 57.9297 178.688 57.9297C179.604 57.9297 180.273 57.5182 180.695 56.6953V52.8125C180.263 52.0156 179.599 51.6172 178.703 51.6172C177.995 51.6172 177.443 51.8906 177.047 52.4375C176.651 52.9844 176.453 53.7943 176.453 54.8672Z" fill="white"/>
<path d="M302 202V216C302 237.539 319.461 255 341 255V255" stroke="black" stroke-width="2"/>
<path d="M318 231L342 255L318 279" stroke="black" stroke-width="2"/>
<rect x="215" y="122" width="160" height="80" fill="black"/>
<path d="M293.375 166.008L295 159.547H296.445L293.984 168H292.812L290.758 161.594L288.758 168H287.586L285.133 159.547H286.57L288.234 165.875L290.203 159.547H291.367L293.375 166.008ZM301.312 166.977C301.828 166.977 302.279 166.82 302.664 166.508C303.049 166.195 303.263 165.805 303.305 165.336H304.672C304.646 165.82 304.479 166.281 304.172 166.719C303.865 167.156 303.453 167.505 302.938 167.766C302.427 168.026 301.885 168.156 301.312 168.156C300.161 168.156 299.245 167.773 298.562 167.008C297.885 166.237 297.547 165.185 297.547 163.852V163.609C297.547 162.786 297.698 162.055 298 161.414C298.302 160.773 298.734 160.276 299.297 159.922C299.865 159.568 300.534 159.391 301.305 159.391C302.253 159.391 303.039 159.674 303.664 160.242C304.294 160.81 304.63 161.547 304.672 162.453H303.305C303.263 161.906 303.055 161.458 302.68 161.109C302.31 160.755 301.852 160.578 301.305 160.578C300.57 160.578 300 160.844 299.594 161.375C299.193 161.901 298.992 162.664 298.992 163.664V163.938C298.992 164.911 299.193 165.661 299.594 166.188C299.995 166.714 300.568 166.977 301.312 166.977Z" fill="white"/>
<path d="M429 305V319C429 340.539 446.461 358 468 358V358" stroke="black" stroke-width="2"/>
<path d="M445 334L469 358L445 382" stroke="black" stroke-width="2"/>
<rect x="342" y="225" width="160" height="80" fill="black"/>
<path d="M413.805 268.758C413.805 268.367 413.656 268.065 413.359 267.852C413.068 267.633 412.555 267.445 411.82 267.289C411.091 267.133 410.51 266.945 410.078 266.727C409.651 266.508 409.333 266.247 409.125 265.945C408.922 265.643 408.82 265.284 408.82 264.867C408.82 264.174 409.112 263.589 409.695 263.109C410.284 262.63 411.034 262.391 411.945 262.391C412.904 262.391 413.68 262.638 414.273 263.133C414.872 263.628 415.172 264.26 415.172 265.031H413.719C413.719 264.635 413.549 264.294 413.211 264.008C412.878 263.721 412.456 263.578 411.945 263.578C411.419 263.578 411.008 263.693 410.711 263.922C410.414 264.151 410.266 264.451 410.266 264.82C410.266 265.169 410.404 265.432 410.68 265.609C410.956 265.786 411.453 265.956 412.172 266.117C412.896 266.279 413.482 266.471 413.93 266.695C414.378 266.919 414.708 267.19 414.922 267.508C415.141 267.82 415.25 268.203 415.25 268.656C415.25 269.411 414.948 270.018 414.344 270.477C413.74 270.93 412.956 271.156 411.992 271.156C411.315 271.156 410.716 271.036 410.195 270.797C409.674 270.557 409.266 270.224 408.969 269.797C408.677 269.365 408.531 268.898 408.531 268.398H409.977C410.003 268.883 410.195 269.268 410.555 269.555C410.919 269.836 411.398 269.977 411.992 269.977C412.539 269.977 412.977 269.867 413.305 269.648C413.638 269.424 413.805 269.128 413.805 268.758ZM416.75 266.695C416.75 265.867 416.911 265.122 417.234 264.461C417.562 263.799 418.016 263.289 418.594 262.93C419.177 262.57 419.841 262.391 420.586 262.391C421.737 262.391 422.667 262.789 423.375 263.586C424.089 264.383 424.445 265.443 424.445 266.766V266.867C424.445 267.69 424.286 268.43 423.969 269.086C423.656 269.737 423.206 270.245 422.617 270.609C422.034 270.974 421.362 271.156 420.602 271.156C419.456 271.156 418.526 270.758 417.812 269.961C417.104 269.164 416.75 268.109 416.75 266.797V266.695ZM418.203 266.867C418.203 267.805 418.419 268.557 418.852 269.125C419.289 269.693 419.872 269.977 420.602 269.977C421.336 269.977 421.919 269.69 422.352 269.117C422.784 268.539 423 267.732 423 266.695C423 265.768 422.779 265.018 422.336 264.445C421.898 263.867 421.315 263.578 420.586 263.578C419.872 263.578 419.297 263.862 418.859 264.43C418.422 264.997 418.203 265.81 418.203 266.867ZM430.344 263.844C430.125 263.807 429.888 263.789 429.633 263.789C428.685 263.789 428.042 264.193 427.703 265V271H426.258V262.547H427.664L427.688 263.523C428.161 262.768 428.833 262.391 429.703 262.391C429.984 262.391 430.198 262.427 430.344 262.5V263.844ZM434.031 260.5V262.547H435.609V263.664H434.031V268.906C434.031 269.245 434.102 269.5 434.242 269.672C434.383 269.839 434.622 269.922 434.961 269.922C435.128 269.922 435.357 269.891 435.648 269.828V271C435.268 271.104 434.898 271.156 434.539 271.156C433.893 271.156 433.406 270.961 433.078 270.57C432.75 270.18 432.586 269.625 432.586 268.906V263.664H431.047V262.547H432.586V260.5H434.031Z" fill="white"/>
<path d="M556 405V419C556 440.539 573.461 458 595 458V458" stroke="black" stroke-width="2"/>
<path d="M572 434L596 458L572 482" stroke="black" stroke-width="2"/>
<rect x="469" y="325" width="160" height="80" fill="black"/>
<path d="M541.195 360.5V362.547H542.773V363.664H541.195V368.906C541.195 369.245 541.266 369.5 541.406 369.672C541.547 369.839 541.786 369.922 542.125 369.922C542.292 369.922 542.521 369.891 542.812 369.828V371C542.432 371.104 542.062 371.156 541.703 371.156C541.057 371.156 540.57 370.961 540.242 370.57C539.914 370.18 539.75 369.625 539.75 368.906V363.664H538.211V362.547H539.75V360.5H541.195ZM549.688 371C549.604 370.833 549.536 370.536 549.484 370.109C548.812 370.807 548.01 371.156 547.078 371.156C546.245 371.156 545.56 370.922 545.023 370.453C544.492 369.979 544.227 369.38 544.227 368.656C544.227 367.776 544.56 367.094 545.227 366.609C545.898 366.12 546.841 365.875 548.055 365.875H549.461V365.211C549.461 364.706 549.31 364.305 549.008 364.008C548.706 363.706 548.26 363.555 547.672 363.555C547.156 363.555 546.724 363.685 546.375 363.945C546.026 364.206 545.852 364.521 545.852 364.891H544.398C544.398 364.469 544.547 364.062 544.844 363.672C545.146 363.276 545.552 362.964 546.062 362.734C546.578 362.505 547.143 362.391 547.758 362.391C548.732 362.391 549.495 362.635 550.047 363.125C550.599 363.609 550.885 364.279 550.906 365.133V369.023C550.906 369.799 551.005 370.417 551.203 370.875V371H549.688ZM547.289 369.898C547.742 369.898 548.172 369.781 548.578 369.547C548.984 369.312 549.279 369.008 549.461 368.633V366.898H548.328C546.557 366.898 545.672 367.417 545.672 368.453C545.672 368.906 545.823 369.26 546.125 369.516C546.427 369.771 546.815 369.898 547.289 369.898ZM554.742 371H553.297V362.547H554.742V371ZM553.18 360.305C553.18 360.07 553.25 359.872 553.391 359.711C553.536 359.549 553.75 359.469 554.031 359.469C554.312 359.469 554.526 359.549 554.672 359.711C554.818 359.872 554.891 360.07 554.891 360.305C554.891 360.539 554.818 360.734 554.672 360.891C554.526 361.047 554.312 361.125 554.031 361.125C553.75 361.125 553.536 361.047 553.391 360.891C553.25 360.734 553.18 360.539 553.18 360.305ZM558.633 371H557.188V359H558.633V371Z" fill="white"/>
<rect x="596" y="425" width="160" height="80" fill="black"/>
<path d="M661.023 463.57C661.664 462.784 662.497 462.391 663.523 462.391C665.31 462.391 666.211 463.398 666.227 465.414V471H664.781V465.406C664.776 464.797 664.635 464.346 664.359 464.055C664.089 463.763 663.664 463.617 663.086 463.617C662.617 463.617 662.206 463.742 661.852 463.992C661.497 464.242 661.221 464.57 661.023 464.977V471H659.578V459H661.023V463.57ZM671.898 471.156C670.753 471.156 669.82 470.781 669.102 470.031C668.383 469.276 668.023 468.268 668.023 467.008V466.742C668.023 465.904 668.182 465.156 668.5 464.5C668.823 463.839 669.271 463.323 669.844 462.953C670.422 462.578 671.047 462.391 671.719 462.391C672.818 462.391 673.672 462.753 674.281 463.477C674.891 464.201 675.195 465.237 675.195 466.586V467.188H669.469C669.49 468.021 669.732 468.695 670.195 469.211C670.664 469.721 671.258 469.977 671.977 469.977C672.487 469.977 672.919 469.872 673.273 469.664C673.628 469.456 673.938 469.18 674.203 468.836L675.086 469.523C674.378 470.612 673.315 471.156 671.898 471.156ZM671.719 463.578C671.135 463.578 670.646 463.792 670.25 464.219C669.854 464.641 669.609 465.234 669.516 466H673.75V465.891C673.708 465.156 673.51 464.589 673.156 464.188C672.802 463.781 672.323 463.578 671.719 463.578ZM682.094 471C682.01 470.833 681.943 470.536 681.891 470.109C681.219 470.807 680.417 471.156 679.484 471.156C678.651 471.156 677.966 470.922 677.43 470.453C676.898 469.979 676.633 469.38 676.633 468.656C676.633 467.776 676.966 467.094 677.633 466.609C678.305 466.12 679.247 465.875 680.461 465.875H681.867V465.211C681.867 464.706 681.716 464.305 681.414 464.008C681.112 463.706 680.667 463.555 680.078 463.555C679.562 463.555 679.13 463.685 678.781 463.945C678.432 464.206 678.258 464.521 678.258 464.891H676.805C676.805 464.469 676.953 464.062 677.25 463.672C677.552 463.276 677.958 462.964 678.469 462.734C678.984 462.505 679.549 462.391 680.164 462.391C681.138 462.391 681.901 462.635 682.453 463.125C683.005 463.609 683.292 464.279 683.312 465.133V469.023C683.312 469.799 683.411 470.417 683.609 470.875V471H682.094ZM679.695 469.898C680.148 469.898 680.578 469.781 680.984 469.547C681.391 469.312 681.685 469.008 681.867 468.633V466.898H680.734C678.964 466.898 678.078 467.417 678.078 468.453C678.078 468.906 678.229 469.26 678.531 469.516C678.833 469.771 679.221 469.898 679.695 469.898ZM685.227 466.703C685.227 465.406 685.534 464.365 686.148 463.578C686.763 462.786 687.568 462.391 688.562 462.391C689.552 462.391 690.336 462.729 690.914 463.406V459H692.359V471H691.031L690.961 470.094C690.383 470.802 689.578 471.156 688.547 471.156C687.568 471.156 686.768 470.755 686.148 469.953C685.534 469.151 685.227 468.104 685.227 466.812V466.703ZM686.672 466.867C686.672 467.826 686.87 468.576 687.266 469.117C687.661 469.659 688.208 469.93 688.906 469.93C689.823 469.93 690.492 469.518 690.914 468.695V464.812C690.482 464.016 689.818 463.617 688.922 463.617C688.214 463.617 687.661 463.891 687.266 464.438C686.87 464.984 686.672 465.794 686.672 466.867Z" fill="white"/>
<path d="M84.0607 54.0607C84.6464 53.4749 84.6464 52.5251 84.0607 51.9393L74.5147 42.3934C73.9289 41.8076 72.9792 41.8076 72.3934 42.3934C71.8076 42.9792 71.8076 43.9289 72.3934 44.5147L80.8787 53L72.3934 61.4853C71.8076 62.0711 71.8076 63.0208 72.3934 63.6066C72.9792 64.1924 73.9289 64.1924 74.5147 63.6066L84.0607 54.0607ZM0 54.5H83V51.5H0V54.5Z" fill="black"/>
<path d="M46.4531 131V123.664H45.1172V122.547H46.4531V121.828C46.4531 120.885 46.7214 120.151 47.2578 119.625C47.7995 119.099 48.5625 118.836 49.5469 118.836C50.1302 118.836 50.8672 118.995 51.7578 119.312L51.5156 120.531C50.8646 120.271 50.2448 120.141 49.6562 120.141C49.0365 120.141 48.5885 120.281 48.3125 120.562C48.0417 120.839 47.9062 121.255 47.9062 121.812V122.547H49.6328V123.664H47.9062V131H46.4531ZM52.4766 131H51.0234V122.547H52.4766V131ZM56.3984 131H54.9531V119H56.3984V131ZM62.2266 131.156C61.0807 131.156 60.1484 130.781 59.4297 130.031C58.7109 129.276 58.3516 128.268 58.3516 127.008V126.742C58.3516 125.904 58.5104 125.156 58.8281 124.5C59.151 123.839 59.599 123.323 60.1719 122.953C60.75 122.578 61.375 122.391 62.0469 122.391C63.1458 122.391 64 122.753 64.6094 123.477C65.2188 124.201 65.5234 125.237 65.5234 126.586V127.188H59.7969C59.8177 128.021 60.0599 128.695 60.5234 129.211C60.9922 129.721 61.5859 129.977 62.3047 129.977C62.8151 129.977 63.2474 129.872 63.6016 129.664C63.9557 129.456 64.2656 129.18 64.5312 128.836L65.4141 129.523C64.7057 130.612 63.6432 131.156 62.2266 131.156ZM62.0469 123.578C61.4635 123.578 60.974 123.792 60.5781 124.219C60.1823 124.641 59.9375 125.234 59.8438 126H64.0781V125.891C64.0365 125.156 63.8385 124.589 63.4844 124.188C63.1302 123.781 62.651 123.578 62.0469 123.578ZM72.5391 122.547L72.5859 123.609C73.2318 122.797 74.0755 122.391 75.1172 122.391C76.9036 122.391 77.8047 123.398 77.8203 125.414V131H76.375V125.406C76.3698 124.797 76.2292 124.346 75.9531 124.055C75.6823 123.763 75.2578 123.617 74.6797 123.617C74.2109 123.617 73.7995 123.742 73.4453 123.992C73.0911 124.242 72.8151 124.57 72.6172 124.977V131H71.1719V122.547H72.5391ZM85.2188 131C85.1354 130.833 85.0677 130.536 85.0156 130.109C84.3438 130.807 83.5417 131.156 82.6094 131.156C81.776 131.156 81.0911 130.922 80.5547 130.453C80.0234 129.979 79.7578 129.38 79.7578 128.656C79.7578 127.776 80.0911 127.094 80.7578 126.609C81.4297 126.12 82.3724 125.875 83.5859 125.875H84.9922V125.211C84.9922 124.706 84.8411 124.305 84.5391 124.008C84.237 123.706 83.7917 123.555 83.2031 123.555C82.6875 123.555 82.2552 123.685 81.9062 123.945C81.5573 124.206 81.3828 124.521 81.3828 124.891H79.9297C79.9297 124.469 80.0781 124.062 80.375 123.672C80.6771 123.276 81.0833 122.964 81.5938 122.734C82.1094 122.505 82.6745 122.391 83.2891 122.391C84.263 122.391 85.026 122.635 85.5781 123.125C86.1302 123.609 86.4167 124.279 86.4375 125.133V129.023C86.4375 129.799 86.5365 130.417 86.7344 130.875V131H85.2188ZM82.8203 129.898C83.2734 129.898 83.7031 129.781 84.1094 129.547C84.5156 129.312 84.8099 129.008 84.9922 128.633V126.898H83.8594C82.0885 126.898 81.2031 127.417 81.2031 128.453C81.2031 128.906 81.3542 129.26 81.6562 129.516C81.9583 129.771 82.3464 129.898 82.8203 129.898ZM90.0625 122.547L90.1016 123.484C90.7214 122.755 91.5573 122.391 92.6094 122.391C93.7917 122.391 94.5964 122.844 95.0234 123.75C95.3047 123.344 95.6693 123.016 96.1172 122.766C96.5703 122.516 97.1042 122.391 97.7188 122.391C99.5729 122.391 100.516 123.372 100.547 125.336V131H99.1016V125.422C99.1016 124.818 98.9635 124.367 98.6875 124.07C98.4115 123.768 97.9479 123.617 97.2969 123.617C96.7604 123.617 96.3151 123.779 95.9609 124.102C95.6068 124.419 95.401 124.849 95.3438 125.391V131H93.8906V125.461C93.8906 124.232 93.2891 123.617 92.0859 123.617C91.138 123.617 90.4896 124.021 90.1406 124.828V131H88.6953V122.547H90.0625ZM106.242 131.156C105.096 131.156 104.164 130.781 103.445 130.031C102.727 129.276 102.367 128.268 102.367 127.008V126.742C102.367 125.904 102.526 125.156 102.844 124.5C103.167 123.839 103.615 123.323 104.188 122.953C104.766 122.578 105.391 122.391 106.062 122.391C107.161 122.391 108.016 122.753 108.625 123.477C109.234 124.201 109.539 125.237 109.539 126.586V127.188H103.812C103.833 128.021 104.076 128.695 104.539 129.211C105.008 129.721 105.602 129.977 106.32 129.977C106.831 129.977 107.263 129.872 107.617 129.664C107.971 129.456 108.281 129.18 108.547 128.836L109.43 129.523C108.721 130.612 107.659 131.156 106.242 131.156ZM106.062 123.578C105.479 123.578 104.99 123.792 104.594 124.219C104.198 124.641 103.953 125.234 103.859 126H108.094V125.891C108.052 125.156 107.854 124.589 107.5 124.188C107.146 123.781 106.667 123.578 106.062 123.578Z" fill="black"/>
<path d="M235.203 229H233.758V217H235.203V229ZM239.094 229H237.648V220.547H239.094V229ZM237.531 218.305C237.531 218.07 237.602 217.872 237.742 217.711C237.888 217.549 238.102 217.469 238.383 217.469C238.664 217.469 238.878 217.549 239.023 217.711C239.169 217.872 239.242 218.07 239.242 218.305C239.242 218.539 239.169 218.734 239.023 218.891C238.878 219.047 238.664 219.125 238.383 219.125C238.102 219.125 237.888 219.047 237.742 218.891C237.602 218.734 237.531 218.539 237.531 218.305ZM246.336 226.758C246.336 226.367 246.188 226.065 245.891 225.852C245.599 225.633 245.086 225.445 244.352 225.289C243.622 225.133 243.042 224.945 242.609 224.727C242.182 224.508 241.865 224.247 241.656 223.945C241.453 223.643 241.352 223.284 241.352 222.867C241.352 222.174 241.643 221.589 242.227 221.109C242.815 220.63 243.565 220.391 244.477 220.391C245.435 220.391 246.211 220.638 246.805 221.133C247.404 221.628 247.703 222.26 247.703 223.031H246.25C246.25 222.635 246.081 222.294 245.742 222.008C245.409 221.721 244.987 221.578 244.477 221.578C243.951 221.578 243.539 221.693 243.242 221.922C242.945 222.151 242.797 222.451 242.797 222.82C242.797 223.169 242.935 223.432 243.211 223.609C243.487 223.786 243.984 223.956 244.703 224.117C245.427 224.279 246.013 224.471 246.461 224.695C246.909 224.919 247.24 225.19 247.453 225.508C247.672 225.82 247.781 226.203 247.781 226.656C247.781 227.411 247.479 228.018 246.875 228.477C246.271 228.93 245.487 229.156 244.523 229.156C243.846 229.156 243.247 229.036 242.727 228.797C242.206 228.557 241.797 228.224 241.5 227.797C241.208 227.365 241.062 226.898 241.062 226.398H242.508C242.534 226.883 242.727 227.268 243.086 227.555C243.451 227.836 243.93 227.977 244.523 227.977C245.07 227.977 245.508 227.867 245.836 227.648C246.169 227.424 246.336 227.128 246.336 226.758ZM251.625 218.5V220.547H253.203V221.664H251.625V226.906C251.625 227.245 251.695 227.5 251.836 227.672C251.977 227.839 252.216 227.922 252.555 227.922C252.721 227.922 252.951 227.891 253.242 227.828V229C252.862 229.104 252.492 229.156 252.133 229.156C251.487 229.156 251 228.961 250.672 228.57C250.344 228.18 250.18 227.625 250.18 226.906V221.664H248.641V220.547H250.18V218.5H251.625ZM258.484 224.695C258.484 223.867 258.646 223.122 258.969 222.461C259.297 221.799 259.75 221.289 260.328 220.93C260.911 220.57 261.576 220.391 262.32 220.391C263.471 220.391 264.401 220.789 265.109 221.586C265.823 222.383 266.18 223.443 266.18 224.766V224.867C266.18 225.69 266.021 226.43 265.703 227.086C265.391 227.737 264.94 228.245 264.352 228.609C263.768 228.974 263.096 229.156 262.336 229.156C261.19 229.156 260.26 228.758 259.547 227.961C258.839 227.164 258.484 226.109 258.484 224.797V224.695ZM259.938 224.867C259.938 225.805 260.154 226.557 260.586 227.125C261.023 227.693 261.607 227.977 262.336 227.977C263.07 227.977 263.654 227.69 264.086 227.117C264.518 226.539 264.734 225.732 264.734 224.695C264.734 223.768 264.513 223.018 264.07 222.445C263.633 221.867 263.049 221.578 262.32 221.578C261.607 221.578 261.031 221.862 260.594 222.43C260.156 222.997 259.938 223.81 259.938 224.867ZM268.703 229V221.664H267.367V220.547H268.703V219.68C268.703 218.773 268.945 218.073 269.43 217.578C269.914 217.083 270.599 216.836 271.484 216.836C271.818 216.836 272.148 216.88 272.477 216.969L272.398 218.141C272.154 218.094 271.893 218.07 271.617 218.07C271.148 218.07 270.786 218.208 270.531 218.484C270.276 218.755 270.148 219.146 270.148 219.656V220.547H271.953V221.664H270.148V229H268.703ZM223.227 248H221.781V236H223.227V248ZM227.117 248H225.672V239.547H227.117V248ZM225.555 237.305C225.555 237.07 225.625 236.872 225.766 236.711C225.911 236.549 226.125 236.469 226.406 236.469C226.688 236.469 226.901 236.549 227.047 236.711C227.193 236.872 227.266 237.07 227.266 237.305C227.266 237.539 227.193 237.734 227.047 237.891C226.901 238.047 226.688 238.125 226.406 238.125C226.125 238.125 225.911 238.047 225.766 237.891C225.625 237.734 225.555 237.539 225.555 237.305ZM230.805 239.547L230.852 240.609C231.497 239.797 232.341 239.391 233.383 239.391C235.169 239.391 236.07 240.398 236.086 242.414V248H234.641V242.406C234.635 241.797 234.495 241.346 234.219 241.055C233.948 240.763 233.523 240.617 232.945 240.617C232.477 240.617 232.065 240.742 231.711 240.992C231.357 241.242 231.081 241.57 230.883 241.977V248H229.438V239.547H230.805ZM241.773 248.156C240.628 248.156 239.695 247.781 238.977 247.031C238.258 246.276 237.898 245.268 237.898 244.008V243.742C237.898 242.904 238.057 242.156 238.375 241.5C238.698 240.839 239.146 240.323 239.719 239.953C240.297 239.578 240.922 239.391 241.594 239.391C242.693 239.391 243.547 239.753 244.156 240.477C244.766 241.201 245.07 242.237 245.07 243.586V244.188H239.344C239.365 245.021 239.607 245.695 240.07 246.211C240.539 246.721 241.133 246.977 241.852 246.977C242.362 246.977 242.794 246.872 243.148 246.664C243.503 246.456 243.812 246.18 244.078 245.836L244.961 246.523C244.253 247.612 243.19 248.156 241.773 248.156ZM241.594 240.578C241.01 240.578 240.521 240.792 240.125 241.219C239.729 241.641 239.484 242.234 239.391 243H243.625V242.891C243.583 242.156 243.385 241.589 243.031 241.188C242.677 240.781 242.198 240.578 241.594 240.578ZM251.672 245.758C251.672 245.367 251.523 245.065 251.227 244.852C250.935 244.633 250.422 244.445 249.688 244.289C248.958 244.133 248.378 243.945 247.945 243.727C247.518 243.508 247.201 243.247 246.992 242.945C246.789 242.643 246.688 242.284 246.688 241.867C246.688 241.174 246.979 240.589 247.562 240.109C248.151 239.63 248.901 239.391 249.812 239.391C250.771 239.391 251.547 239.638 252.141 240.133C252.74 240.628 253.039 241.26 253.039 242.031H251.586C251.586 241.635 251.417 241.294 251.078 241.008C250.745 240.721 250.323 240.578 249.812 240.578C249.286 240.578 248.875 240.693 248.578 240.922C248.281 241.151 248.133 241.451 248.133 241.82C248.133 242.169 248.271 242.432 248.547 242.609C248.823 242.786 249.32 242.956 250.039 243.117C250.763 243.279 251.349 243.471 251.797 243.695C252.245 243.919 252.576 244.19 252.789 244.508C253.008 244.82 253.117 245.203 253.117 245.656C253.117 246.411 252.815 247.018 252.211 247.477C251.607 247.93 250.823 248.156 249.859 248.156C249.182 248.156 248.583 248.036 248.062 247.797C247.542 247.557 247.133 247.224 246.836 246.797C246.544 246.365 246.398 245.898 246.398 245.398H247.844C247.87 245.883 248.062 246.268 248.422 246.555C248.786 246.836 249.266 246.977 249.859 246.977C250.406 246.977 250.844 246.867 251.172 246.648C251.505 246.424 251.672 246.128 251.672 245.758ZM264.188 248C264.104 247.833 264.036 247.536 263.984 247.109C263.312 247.807 262.51 248.156 261.578 248.156C260.745 248.156 260.06 247.922 259.523 247.453C258.992 246.979 258.727 246.38 258.727 245.656C258.727 244.776 259.06 244.094 259.727 243.609C260.398 243.12 261.341 242.875 262.555 242.875H263.961V242.211C263.961 241.706 263.81 241.305 263.508 241.008C263.206 240.706 262.76 240.555 262.172 240.555C261.656 240.555 261.224 240.685 260.875 240.945C260.526 241.206 260.352 241.521 260.352 241.891H258.898C258.898 241.469 259.047 241.062 259.344 240.672C259.646 240.276 260.052 239.964 260.562 239.734C261.078 239.505 261.643 239.391 262.258 239.391C263.232 239.391 263.995 239.635 264.547 240.125C265.099 240.609 265.385 241.279 265.406 242.133V246.023C265.406 246.799 265.505 247.417 265.703 247.875V248H264.188ZM261.789 246.898C262.242 246.898 262.672 246.781 263.078 246.547C263.484 246.312 263.779 246.008 263.961 245.633V243.898H262.828C261.057 243.898 260.172 244.417 260.172 245.453C260.172 245.906 260.323 246.26 260.625 246.516C260.927 246.771 261.315 246.898 261.789 246.898ZM269.039 239.547L269.086 240.609C269.732 239.797 270.576 239.391 271.617 239.391C273.404 239.391 274.305 240.398 274.32 242.414V248H272.875V242.406C272.87 241.797 272.729 241.346 272.453 241.055C272.182 240.763 271.758 240.617 271.18 240.617C270.711 240.617 270.299 240.742 269.945 240.992C269.591 241.242 269.315 241.57 269.117 241.977V248H267.672V239.547H269.039ZM276.148 243.703C276.148 242.406 276.456 241.365 277.07 240.578C277.685 239.786 278.49 239.391 279.484 239.391C280.474 239.391 281.258 239.729 281.836 240.406V236H283.281V248H281.953L281.883 247.094C281.305 247.802 280.5 248.156 279.469 248.156C278.49 248.156 277.69 247.755 277.07 246.953C276.456 246.151 276.148 245.104 276.148 243.812V243.703ZM277.594 243.867C277.594 244.826 277.792 245.576 278.188 246.117C278.583 246.659 279.13 246.93 279.828 246.93C280.745 246.93 281.414 246.518 281.836 245.695V241.812C281.404 241.016 280.74 240.617 279.844 240.617C279.135 240.617 278.583 240.891 278.188 241.438C277.792 241.984 277.594 242.794 277.594 243.867ZM230.812 258.547L230.859 259.609C231.505 258.797 232.349 258.391 233.391 258.391C235.177 258.391 236.078 259.398 236.094 261.414V267H234.648V261.406C234.643 260.797 234.503 260.346 234.227 260.055C233.956 259.763 233.531 259.617 232.953 259.617C232.484 259.617 232.073 259.742 231.719 259.992C231.365 260.242 231.089 260.57 230.891 260.977V267H229.445V258.547H230.812ZM243.492 267C243.409 266.833 243.341 266.536 243.289 266.109C242.617 266.807 241.815 267.156 240.883 267.156C240.049 267.156 239.365 266.922 238.828 266.453C238.297 265.979 238.031 265.38 238.031 264.656C238.031 263.776 238.365 263.094 239.031 262.609C239.703 262.12 240.646 261.875 241.859 261.875H243.266V261.211C243.266 260.706 243.115 260.305 242.812 260.008C242.51 259.706 242.065 259.555 241.477 259.555C240.961 259.555 240.529 259.685 240.18 259.945C239.831 260.206 239.656 260.521 239.656 260.891H238.203C238.203 260.469 238.352 260.062 238.648 259.672C238.951 259.276 239.357 258.964 239.867 258.734C240.383 258.505 240.948 258.391 241.562 258.391C242.536 258.391 243.299 258.635 243.852 259.125C244.404 259.609 244.69 260.279 244.711 261.133V265.023C244.711 265.799 244.81 266.417 245.008 266.875V267H243.492ZM241.094 265.898C241.547 265.898 241.977 265.781 242.383 265.547C242.789 265.312 243.083 265.008 243.266 264.633V262.898H242.133C240.362 262.898 239.477 263.417 239.477 264.453C239.477 264.906 239.628 265.26 239.93 265.516C240.232 265.771 240.62 265.898 241.094 265.898ZM248.336 258.547L248.375 259.484C248.995 258.755 249.831 258.391 250.883 258.391C252.065 258.391 252.87 258.844 253.297 259.75C253.578 259.344 253.943 259.016 254.391 258.766C254.844 258.516 255.378 258.391 255.992 258.391C257.846 258.391 258.789 259.372 258.82 261.336V267H257.375V261.422C257.375 260.818 257.237 260.367 256.961 260.07C256.685 259.768 256.221 259.617 255.57 259.617C255.034 259.617 254.589 259.779 254.234 260.102C253.88 260.419 253.674 260.849 253.617 261.391V267H252.164V261.461C252.164 260.232 251.562 259.617 250.359 259.617C249.411 259.617 248.763 260.021 248.414 260.828V267H246.969V258.547H248.336ZM264.516 267.156C263.37 267.156 262.438 266.781 261.719 266.031C261 265.276 260.641 264.268 260.641 263.008V262.742C260.641 261.904 260.799 261.156 261.117 260.5C261.44 259.839 261.888 259.323 262.461 258.953C263.039 258.578 263.664 258.391 264.336 258.391C265.435 258.391 266.289 258.753 266.898 259.477C267.508 260.201 267.812 261.237 267.812 262.586V263.188H262.086C262.107 264.021 262.349 264.695 262.812 265.211C263.281 265.721 263.875 265.977 264.594 265.977C265.104 265.977 265.536 265.872 265.891 265.664C266.245 265.456 266.555 265.18 266.82 264.836L267.703 265.523C266.995 266.612 265.932 267.156 264.516 267.156ZM264.336 259.578C263.753 259.578 263.263 259.792 262.867 260.219C262.471 260.641 262.227 261.234 262.133 262H266.367V261.891C266.326 261.156 266.128 260.589 265.773 260.188C265.419 259.781 264.94 259.578 264.336 259.578ZM274.414 264.758C274.414 264.367 274.266 264.065 273.969 263.852C273.677 263.633 273.164 263.445 272.43 263.289C271.701 263.133 271.12 262.945 270.688 262.727C270.26 262.508 269.943 262.247 269.734 261.945C269.531 261.643 269.43 261.284 269.43 260.867C269.43 260.174 269.721 259.589 270.305 259.109C270.893 258.63 271.643 258.391 272.555 258.391C273.513 258.391 274.289 258.638 274.883 259.133C275.482 259.628 275.781 260.26 275.781 261.031H274.328C274.328 260.635 274.159 260.294 273.82 260.008C273.487 259.721 273.065 259.578 272.555 259.578C272.029 259.578 271.617 259.693 271.32 259.922C271.023 260.151 270.875 260.451 270.875 260.82C270.875 261.169 271.013 261.432 271.289 261.609C271.565 261.786 272.062 261.956 272.781 262.117C273.505 262.279 274.091 262.471 274.539 262.695C274.987 262.919 275.318 263.19 275.531 263.508C275.75 263.82 275.859 264.203 275.859 264.656C275.859 265.411 275.557 266.018 274.953 266.477C274.349 266.93 273.565 267.156 272.602 267.156C271.924 267.156 271.326 267.036 270.805 266.797C270.284 266.557 269.875 266.224 269.578 265.797C269.286 265.365 269.141 264.898 269.141 264.398H270.586C270.612 264.883 270.805 265.268 271.164 265.555C271.529 265.836 272.008 265.977 272.602 265.977C273.148 265.977 273.586 265.867 273.914 265.648C274.247 265.424 274.414 265.128 274.414 264.758Z" fill="black"/>
<path d="M344.578 345H343.133V333H344.578V345ZM348.469 345H347.023V336.547H348.469V345ZM346.906 334.305C346.906 334.07 346.977 333.872 347.117 333.711C347.263 333.549 347.477 333.469 347.758 333.469C348.039 333.469 348.253 333.549 348.398 333.711C348.544 333.872 348.617 334.07 348.617 334.305C348.617 334.539 348.544 334.734 348.398 334.891C348.253 335.047 348.039 335.125 347.758 335.125C347.477 335.125 347.263 335.047 347.117 334.891C346.977 334.734 346.906 334.539 346.906 334.305ZM355.711 342.758C355.711 342.367 355.562 342.065 355.266 341.852C354.974 341.633 354.461 341.445 353.727 341.289C352.997 341.133 352.417 340.945 351.984 340.727C351.557 340.508 351.24 340.247 351.031 339.945C350.828 339.643 350.727 339.284 350.727 338.867C350.727 338.174 351.018 337.589 351.602 337.109C352.19 336.63 352.94 336.391 353.852 336.391C354.81 336.391 355.586 336.638 356.18 337.133C356.779 337.628 357.078 338.26 357.078 339.031H355.625C355.625 338.635 355.456 338.294 355.117 338.008C354.784 337.721 354.362 337.578 353.852 337.578C353.326 337.578 352.914 337.693 352.617 337.922C352.32 338.151 352.172 338.451 352.172 338.82C352.172 339.169 352.31 339.432 352.586 339.609C352.862 339.786 353.359 339.956 354.078 340.117C354.802 340.279 355.388 340.471 355.836 340.695C356.284 340.919 356.615 341.19 356.828 341.508C357.047 341.82 357.156 342.203 357.156 342.656C357.156 343.411 356.854 344.018 356.25 344.477C355.646 344.93 354.862 345.156 353.898 345.156C353.221 345.156 352.622 345.036 352.102 344.797C351.581 344.557 351.172 344.224 350.875 343.797C350.583 343.365 350.438 342.898 350.438 342.398H351.883C351.909 342.883 352.102 343.268 352.461 343.555C352.826 343.836 353.305 343.977 353.898 343.977C354.445 343.977 354.883 343.867 355.211 343.648C355.544 343.424 355.711 343.128 355.711 342.758ZM361 334.5V336.547H362.578V337.664H361V342.906C361 343.245 361.07 343.5 361.211 343.672C361.352 343.839 361.591 343.922 361.93 343.922C362.096 343.922 362.326 343.891 362.617 343.828V345C362.237 345.104 361.867 345.156 361.508 345.156C360.862 345.156 360.375 344.961 360.047 344.57C359.719 344.18 359.555 343.625 359.555 342.906V337.664H358.016V336.547H359.555V334.5H361ZM373.164 342.758C373.164 342.367 373.016 342.065 372.719 341.852C372.427 341.633 371.914 341.445 371.18 341.289C370.451 341.133 369.87 340.945 369.438 340.727C369.01 340.508 368.693 340.247 368.484 339.945C368.281 339.643 368.18 339.284 368.18 338.867C368.18 338.174 368.471 337.589 369.055 337.109C369.643 336.63 370.393 336.391 371.305 336.391C372.263 336.391 373.039 336.638 373.633 337.133C374.232 337.628 374.531 338.26 374.531 339.031H373.078C373.078 338.635 372.909 338.294 372.57 338.008C372.237 337.721 371.815 337.578 371.305 337.578C370.779 337.578 370.367 337.693 370.07 337.922C369.773 338.151 369.625 338.451 369.625 338.82C369.625 339.169 369.763 339.432 370.039 339.609C370.315 339.786 370.812 339.956 371.531 340.117C372.255 340.279 372.841 340.471 373.289 340.695C373.737 340.919 374.068 341.19 374.281 341.508C374.5 341.82 374.609 342.203 374.609 342.656C374.609 343.411 374.307 344.018 373.703 344.477C373.099 344.93 372.315 345.156 371.352 345.156C370.674 345.156 370.076 345.036 369.555 344.797C369.034 344.557 368.625 344.224 368.328 343.797C368.036 343.365 367.891 342.898 367.891 342.398H369.336C369.362 342.883 369.555 343.268 369.914 343.555C370.279 343.836 370.758 343.977 371.352 343.977C371.898 343.977 372.336 343.867 372.664 343.648C372.997 343.424 373.164 343.128 373.164 342.758ZM376.109 340.695C376.109 339.867 376.271 339.122 376.594 338.461C376.922 337.799 377.375 337.289 377.953 336.93C378.536 336.57 379.201 336.391 379.945 336.391C381.096 336.391 382.026 336.789 382.734 337.586C383.448 338.383 383.805 339.443 383.805 340.766V340.867C383.805 341.69 383.646 342.43 383.328 343.086C383.016 343.737 382.565 344.245 381.977 344.609C381.393 344.974 380.721 345.156 379.961 345.156C378.815 345.156 377.885 344.758 377.172 343.961C376.464 343.164 376.109 342.109 376.109 340.797V340.695ZM377.562 340.867C377.562 341.805 377.779 342.557 378.211 343.125C378.648 343.693 379.232 343.977 379.961 343.977C380.695 343.977 381.279 343.69 381.711 343.117C382.143 342.539 382.359 341.732 382.359 340.695C382.359 339.768 382.138 339.018 381.695 338.445C381.258 337.867 380.674 337.578 379.945 337.578C379.232 337.578 378.656 337.862 378.219 338.43C377.781 338.997 377.562 339.81 377.562 340.867ZM389.703 337.844C389.484 337.807 389.247 337.789 388.992 337.789C388.044 337.789 387.401 338.193 387.062 339V345H385.617V336.547H387.023L387.047 337.523C387.521 336.768 388.193 336.391 389.062 336.391C389.344 336.391 389.557 336.427 389.703 336.5V337.844ZM393.391 334.5V336.547H394.969V337.664H393.391V342.906C393.391 343.245 393.461 343.5 393.602 343.672C393.742 343.839 393.982 343.922 394.32 343.922C394.487 343.922 394.716 343.891 395.008 343.828V345C394.628 345.104 394.258 345.156 393.898 345.156C393.253 345.156 392.766 344.961 392.438 344.57C392.109 344.18 391.945 343.625 391.945 342.906V337.664H390.406V336.547H391.945V334.5H393.391ZM400.172 345.156C399.026 345.156 398.094 344.781 397.375 344.031C396.656 343.276 396.297 342.268 396.297 341.008V340.742C396.297 339.904 396.456 339.156 396.773 338.5C397.096 337.839 397.544 337.323 398.117 336.953C398.695 336.578 399.32 336.391 399.992 336.391C401.091 336.391 401.945 336.753 402.555 337.477C403.164 338.201 403.469 339.237 403.469 340.586V341.188H397.742C397.763 342.021 398.005 342.695 398.469 343.211C398.938 343.721 399.531 343.977 400.25 343.977C400.76 343.977 401.193 343.872 401.547 343.664C401.901 343.456 402.211 343.18 402.477 342.836L403.359 343.523C402.651 344.612 401.589 345.156 400.172 345.156ZM399.992 337.578C399.409 337.578 398.919 337.792 398.523 338.219C398.128 338.641 397.883 339.234 397.789 340H402.023V339.891C401.982 339.156 401.784 338.589 401.43 338.188C401.076 337.781 400.596 337.578 399.992 337.578ZM404.797 340.703C404.797 339.406 405.104 338.365 405.719 337.578C406.333 336.786 407.138 336.391 408.133 336.391C409.122 336.391 409.906 336.729 410.484 337.406V333H411.93V345H410.602L410.531 344.094C409.953 344.802 409.148 345.156 408.117 345.156C407.138 345.156 406.339 344.755 405.719 343.953C405.104 343.151 404.797 342.104 404.797 340.812V340.703ZM406.242 340.867C406.242 341.826 406.44 342.576 406.836 343.117C407.232 343.659 407.779 343.93 408.477 343.93C409.393 343.93 410.062 343.518 410.484 342.695V338.812C410.052 338.016 409.388 337.617 408.492 337.617C407.784 337.617 407.232 337.891 406.836 338.438C406.44 338.984 406.242 339.794 406.242 340.867ZM353.93 359.867C353.93 361.159 353.633 362.198 353.039 362.984C352.445 363.766 351.648 364.156 350.648 364.156C349.581 364.156 348.755 363.779 348.172 363.023L348.102 364H346.773V352H348.219V356.477C348.802 355.753 349.607 355.391 350.633 355.391C351.659 355.391 352.464 355.779 353.047 356.555C353.635 357.331 353.93 358.393 353.93 359.742V359.867ZM352.484 359.703C352.484 358.719 352.294 357.958 351.914 357.422C351.534 356.885 350.987 356.617 350.273 356.617C349.32 356.617 348.635 357.06 348.219 357.945V361.602C348.661 362.487 349.352 362.93 350.289 362.93C350.982 362.93 351.521 362.661 351.906 362.125C352.292 361.589 352.484 360.781 352.484 359.703ZM358.43 361.883L360.398 355.547H361.945L358.547 365.305C358.021 366.711 357.185 367.414 356.039 367.414L355.766 367.391L355.227 367.289V366.117L355.617 366.148C356.107 366.148 356.487 366.049 356.758 365.852C357.034 365.654 357.26 365.292 357.438 364.766L357.758 363.906L354.742 355.547H356.32L358.43 361.883ZM372.094 360.797H370.031L369.406 364H368.289L368.914 360.797H367.047V359.727H369.117L369.656 356.961H367.641V355.875H369.867L370.508 352.625H371.625L370.984 355.875H373.047L373.688 352.625H374.812L374.172 355.875H375.766V356.961H373.961L373.422 359.727H375.18V360.797H373.219L372.594 364H371.469L372.094 360.797ZM370.234 359.727H372.297L372.836 356.961H370.773L370.234 359.727ZM378.641 364H377.195V352H378.641V364ZM382.531 364H381.086V355.547H382.531V364ZM380.969 353.305C380.969 353.07 381.039 352.872 381.18 352.711C381.326 352.549 381.539 352.469 381.82 352.469C382.102 352.469 382.315 352.549 382.461 352.711C382.607 352.872 382.68 353.07 382.68 353.305C382.68 353.539 382.607 353.734 382.461 353.891C382.315 354.047 382.102 354.125 381.82 354.125C381.539 354.125 381.326 354.047 381.18 353.891C381.039 353.734 380.969 353.539 380.969 353.305ZM386.219 355.547L386.266 356.609C386.911 355.797 387.755 355.391 388.797 355.391C390.583 355.391 391.484 356.398 391.5 358.414V364H390.055V358.406C390.049 357.797 389.909 357.346 389.633 357.055C389.362 356.763 388.938 356.617 388.359 356.617C387.891 356.617 387.479 356.742 387.125 356.992C386.771 357.242 386.495 357.57 386.297 357.977V364H384.852V355.547H386.219ZM397.188 364.156C396.042 364.156 395.109 363.781 394.391 363.031C393.672 362.276 393.312 361.268 393.312 360.008V359.742C393.312 358.904 393.471 358.156 393.789 357.5C394.112 356.839 394.56 356.323 395.133 355.953C395.711 355.578 396.336 355.391 397.008 355.391C398.107 355.391 398.961 355.753 399.57 356.477C400.18 357.201 400.484 358.237 400.484 359.586V360.188H394.758C394.779 361.021 395.021 361.695 395.484 362.211C395.953 362.721 396.547 362.977 397.266 362.977C397.776 362.977 398.208 362.872 398.562 362.664C398.917 362.456 399.227 362.18 399.492 361.836L400.375 362.523C399.667 363.612 398.604 364.156 397.188 364.156ZM397.008 356.578C396.424 356.578 395.935 356.792 395.539 357.219C395.143 357.641 394.898 358.234 394.805 359H399.039V358.891C398.997 358.156 398.799 357.589 398.445 357.188C398.091 356.781 397.612 356.578 397.008 356.578ZM407.086 361.758C407.086 361.367 406.938 361.065 406.641 360.852C406.349 360.633 405.836 360.445 405.102 360.289C404.372 360.133 403.792 359.945 403.359 359.727C402.932 359.508 402.615 359.247 402.406 358.945C402.203 358.643 402.102 358.284 402.102 357.867C402.102 357.174 402.393 356.589 402.977 356.109C403.565 355.63 404.315 355.391 405.227 355.391C406.185 355.391 406.961 355.638 407.555 356.133C408.154 356.628 408.453 357.26 408.453 358.031H407C407 357.635 406.831 357.294 406.492 357.008C406.159 356.721 405.737 356.578 405.227 356.578C404.701 356.578 404.289 356.693 403.992 356.922C403.695 357.151 403.547 357.451 403.547 357.82C403.547 358.169 403.685 358.432 403.961 358.609C404.237 358.786 404.734 358.956 405.453 359.117C406.177 359.279 406.763 359.471 407.211 359.695C407.659 359.919 407.99 360.19 408.203 360.508C408.422 360.82 408.531 361.203 408.531 361.656C408.531 362.411 408.229 363.018 407.625 363.477C407.021 363.93 406.237 364.156 405.273 364.156C404.596 364.156 403.997 364.036 403.477 363.797C402.956 363.557 402.547 363.224 402.25 362.797C401.958 362.365 401.812 361.898 401.812 361.398H403.258C403.284 361.883 403.477 362.268 403.836 362.555C404.201 362.836 404.68 362.977 405.273 362.977C405.82 362.977 406.258 362.867 406.586 362.648C406.919 362.424 407.086 362.128 407.086 361.758Z" fill="black"/>
<path d="M484.125 445H482.68V433H484.125V445ZM491.664 445C491.581 444.833 491.513 444.536 491.461 444.109C490.789 444.807 489.987 445.156 489.055 445.156C488.221 445.156 487.536 444.922 487 444.453C486.469 443.979 486.203 443.38 486.203 442.656C486.203 441.776 486.536 441.094 487.203 440.609C487.875 440.12 488.818 439.875 490.031 439.875H491.438V439.211C491.438 438.706 491.286 438.305 490.984 438.008C490.682 437.706 490.237 437.555 489.648 437.555C489.133 437.555 488.701 437.685 488.352 437.945C488.003 438.206 487.828 438.521 487.828 438.891H486.375C486.375 438.469 486.523 438.062 486.82 437.672C487.122 437.276 487.529 436.964 488.039 436.734C488.555 436.505 489.12 436.391 489.734 436.391C490.708 436.391 491.471 436.635 492.023 437.125C492.576 437.609 492.862 438.279 492.883 439.133V443.023C492.883 443.799 492.982 444.417 493.18 444.875V445H491.664ZM489.266 443.898C489.719 443.898 490.148 443.781 490.555 443.547C490.961 443.312 491.255 443.008 491.438 442.633V440.898H490.305C488.534 440.898 487.648 441.417 487.648 442.453C487.648 442.906 487.799 443.26 488.102 443.516C488.404 443.771 488.792 443.898 489.266 443.898ZM500.07 442.758C500.07 442.367 499.922 442.065 499.625 441.852C499.333 441.633 498.82 441.445 498.086 441.289C497.357 441.133 496.776 440.945 496.344 440.727C495.917 440.508 495.599 440.247 495.391 439.945C495.188 439.643 495.086 439.284 495.086 438.867C495.086 438.174 495.378 437.589 495.961 437.109C496.549 436.63 497.299 436.391 498.211 436.391C499.169 436.391 499.945 436.638 500.539 437.133C501.138 437.628 501.438 438.26 501.438 439.031H499.984C499.984 438.635 499.815 438.294 499.477 438.008C499.143 437.721 498.721 437.578 498.211 437.578C497.685 437.578 497.273 437.693 496.977 437.922C496.68 438.151 496.531 438.451 496.531 438.82C496.531 439.169 496.669 439.432 496.945 439.609C497.221 439.786 497.719 439.956 498.438 440.117C499.161 440.279 499.747 440.471 500.195 440.695C500.643 440.919 500.974 441.19 501.188 441.508C501.406 441.82 501.516 442.203 501.516 442.656C501.516 443.411 501.214 444.018 500.609 444.477C500.005 444.93 499.221 445.156 498.258 445.156C497.581 445.156 496.982 445.036 496.461 444.797C495.94 444.557 495.531 444.224 495.234 443.797C494.943 443.365 494.797 442.898 494.797 442.398H496.242C496.268 442.883 496.461 443.268 496.82 443.555C497.185 443.836 497.664 443.977 498.258 443.977C498.805 443.977 499.242 443.867 499.57 443.648C499.904 443.424 500.07 443.128 500.07 442.758ZM505.359 434.5V436.547H506.938V437.664H505.359V442.906C505.359 443.245 505.43 443.5 505.57 443.672C505.711 443.839 505.951 443.922 506.289 443.922C506.456 443.922 506.685 443.891 506.977 443.828V445C506.596 445.104 506.227 445.156 505.867 445.156C505.221 445.156 504.734 444.961 504.406 444.57C504.078 444.18 503.914 443.625 503.914 442.906V437.664H502.375V436.547H503.914V434.5H505.359ZM513.117 439.297L513.695 433.625H519.523V434.961H514.922L514.578 438.062C515.135 437.734 515.768 437.57 516.477 437.57C517.513 437.57 518.336 437.914 518.945 438.602C519.555 439.284 519.859 440.208 519.859 441.375C519.859 442.547 519.542 443.471 518.906 444.148C518.276 444.82 517.393 445.156 516.258 445.156C515.253 445.156 514.432 444.878 513.797 444.32C513.161 443.763 512.799 442.992 512.711 442.008H514.078C514.167 442.659 514.398 443.151 514.773 443.484C515.148 443.812 515.643 443.977 516.258 443.977C516.93 443.977 517.456 443.747 517.836 443.289C518.221 442.831 518.414 442.198 518.414 441.391C518.414 440.63 518.206 440.021 517.789 439.562C517.378 439.099 516.828 438.867 516.141 438.867C515.51 438.867 515.016 439.005 514.656 439.281L514.273 439.594L513.117 439.297ZM529.695 438.898H532.867V440.266H529.695V443.859H528.242V440.266H525.07V438.898H528.242V435.578H529.695V438.898ZM494.539 453.5V455.547H496.117V456.664H494.539V461.906C494.539 462.245 494.609 462.5 494.75 462.672C494.891 462.839 495.13 462.922 495.469 462.922C495.635 462.922 495.865 462.891 496.156 462.828V464C495.776 464.104 495.406 464.156 495.047 464.156C494.401 464.156 493.914 463.961 493.586 463.57C493.258 463.18 493.094 462.625 493.094 461.906V456.664H491.555V455.547H493.094V453.5H494.539ZM497.273 459.695C497.273 458.867 497.435 458.122 497.758 457.461C498.086 456.799 498.539 456.289 499.117 455.93C499.701 455.57 500.365 455.391 501.109 455.391C502.26 455.391 503.19 455.789 503.898 456.586C504.612 457.383 504.969 458.443 504.969 459.766V459.867C504.969 460.69 504.81 461.43 504.492 462.086C504.18 462.737 503.729 463.245 503.141 463.609C502.557 463.974 501.885 464.156 501.125 464.156C499.979 464.156 499.049 463.758 498.336 462.961C497.628 462.164 497.273 461.109 497.273 459.797V459.695ZM498.727 459.867C498.727 460.805 498.943 461.557 499.375 462.125C499.812 462.693 500.396 462.977 501.125 462.977C501.859 462.977 502.443 462.69 502.875 462.117C503.307 461.539 503.523 460.732 503.523 459.695C503.523 458.768 503.302 458.018 502.859 457.445C502.422 456.867 501.839 456.578 501.109 456.578C500.396 456.578 499.82 456.862 499.383 457.43C498.945 457.997 498.727 458.81 498.727 459.867ZM508.742 453.5V455.547H510.32V456.664H508.742V461.906C508.742 462.245 508.812 462.5 508.953 462.672C509.094 462.839 509.333 462.922 509.672 462.922C509.839 462.922 510.068 462.891 510.359 462.828V464C509.979 464.104 509.609 464.156 509.25 464.156C508.604 464.156 508.117 463.961 507.789 463.57C507.461 463.18 507.297 462.625 507.297 461.906V456.664H505.758V455.547H507.297V453.5H508.742ZM517.234 464C517.151 463.833 517.083 463.536 517.031 463.109C516.359 463.807 515.557 464.156 514.625 464.156C513.792 464.156 513.107 463.922 512.57 463.453C512.039 462.979 511.773 462.38 511.773 461.656C511.773 460.776 512.107 460.094 512.773 459.609C513.445 459.12 514.388 458.875 515.602 458.875H517.008V458.211C517.008 457.706 516.857 457.305 516.555 457.008C516.253 456.706 515.807 456.555 515.219 456.555C514.703 456.555 514.271 456.685 513.922 456.945C513.573 457.206 513.398 457.521 513.398 457.891H511.945C511.945 457.469 512.094 457.062 512.391 456.672C512.693 456.276 513.099 455.964 513.609 455.734C514.125 455.505 514.69 455.391 515.305 455.391C516.279 455.391 517.042 455.635 517.594 456.125C518.146 456.609 518.432 457.279 518.453 458.133V462.023C518.453 462.799 518.552 463.417 518.75 463.875V464H517.234ZM514.836 462.898C515.289 462.898 515.719 462.781 516.125 462.547C516.531 462.312 516.826 462.008 517.008 461.633V459.898H515.875C514.104 459.898 513.219 460.417 513.219 461.453C513.219 461.906 513.37 462.26 513.672 462.516C513.974 462.771 514.362 462.898 514.836 462.898ZM522.289 464H520.844V452H522.289V464Z" fill="black"/>
<path d="M659.148 634H657.703V622H659.148V634ZM666.688 634C666.604 633.833 666.536 633.536 666.484 633.109C665.812 633.807 665.01 634.156 664.078 634.156C663.245 634.156 662.56 633.922 662.023 633.453C661.492 632.979 661.227 632.38 661.227 631.656C661.227 630.776 661.56 630.094 662.227 629.609C662.898 629.12 663.841 628.875 665.055 628.875H666.461V628.211C666.461 627.706 666.31 627.305 666.008 627.008C665.706 626.706 665.26 626.555 664.672 626.555C664.156 626.555 663.724 626.685 663.375 626.945C663.026 627.206 662.852 627.521 662.852 627.891H661.398C661.398 627.469 661.547 627.062 661.844 626.672C662.146 626.276 662.552 625.964 663.062 625.734C663.578 625.505 664.143 625.391 664.758 625.391C665.732 625.391 666.495 625.635 667.047 626.125C667.599 626.609 667.885 627.279 667.906 628.133V632.023C667.906 632.799 668.005 633.417 668.203 633.875V634H666.688ZM664.289 632.898C664.742 632.898 665.172 632.781 665.578 632.547C665.984 632.312 666.279 632.008 666.461 631.633V629.898H665.328C663.557 629.898 662.672 630.417 662.672 631.453C662.672 631.906 662.823 632.26 663.125 632.516C663.427 632.771 663.815 632.898 664.289 632.898ZM675.094 631.758C675.094 631.367 674.945 631.065 674.648 630.852C674.357 630.633 673.844 630.445 673.109 630.289C672.38 630.133 671.799 629.945 671.367 629.727C670.94 629.508 670.622 629.247 670.414 628.945C670.211 628.643 670.109 628.284 670.109 627.867C670.109 627.174 670.401 626.589 670.984 626.109C671.573 625.63 672.323 625.391 673.234 625.391C674.193 625.391 674.969 625.638 675.562 626.133C676.161 626.628 676.461 627.26 676.461 628.031H675.008C675.008 627.635 674.839 627.294 674.5 627.008C674.167 626.721 673.745 626.578 673.234 626.578C672.708 626.578 672.297 626.693 672 626.922C671.703 627.151 671.555 627.451 671.555 627.82C671.555 628.169 671.693 628.432 671.969 628.609C672.245 628.786 672.742 628.956 673.461 629.117C674.185 629.279 674.771 629.471 675.219 629.695C675.667 629.919 675.997 630.19 676.211 630.508C676.43 630.82 676.539 631.203 676.539 631.656C676.539 632.411 676.237 633.018 675.633 633.477C675.029 633.93 674.245 634.156 673.281 634.156C672.604 634.156 672.005 634.036 671.484 633.797C670.964 633.557 670.555 633.224 670.258 632.797C669.966 632.365 669.82 631.898 669.82 631.398H671.266C671.292 631.883 671.484 632.268 671.844 632.555C672.208 632.836 672.688 632.977 673.281 632.977C673.828 632.977 674.266 632.867 674.594 632.648C674.927 632.424 675.094 632.128 675.094 631.758ZM680.383 623.5V625.547H681.961V626.664H680.383V631.906C680.383 632.245 680.453 632.5 680.594 632.672C680.734 632.839 680.974 632.922 681.312 632.922C681.479 632.922 681.708 632.891 682 632.828V634C681.62 634.104 681.25 634.156 680.891 634.156C680.245 634.156 679.758 633.961 679.43 633.57C679.102 633.18 678.938 632.625 678.938 631.906V626.664H677.398V625.547H678.938V623.5H680.383ZM688.141 628.297L688.719 622.625H694.547V623.961H689.945L689.602 627.062C690.159 626.734 690.792 626.57 691.5 626.57C692.536 626.57 693.359 626.914 693.969 627.602C694.578 628.284 694.883 629.208 694.883 630.375C694.883 631.547 694.565 632.471 693.93 633.148C693.299 633.82 692.417 634.156 691.281 634.156C690.276 634.156 689.456 633.878 688.82 633.32C688.185 632.763 687.823 631.992 687.734 631.008H689.102C689.19 631.659 689.422 632.151 689.797 632.484C690.172 632.812 690.667 632.977 691.281 632.977C691.953 632.977 692.479 632.747 692.859 632.289C693.245 631.831 693.438 631.198 693.438 630.391C693.438 629.63 693.229 629.021 692.812 628.562C692.401 628.099 691.852 627.867 691.164 627.867C690.534 627.867 690.039 628.005 689.68 628.281L689.297 628.594L688.141 628.297Z" fill="black"/>
<path d="M676 505V585" stroke="black" stroke-width="2"/>
<path d="M700 562L676 586L652 562" stroke="black" stroke-width="2"/>
<path d="M11.6094 4.54688L11.6562 5.60938C12.3021 4.79688 13.1458 4.39062 14.1875 4.39062C15.974 4.39062 16.875 5.39844 16.8906 7.41406V13H15.4453V7.40625C15.4401 6.79688 15.2995 6.34635 15.0234 6.05469C14.7526 5.76302 14.3281 5.61719 13.75 5.61719C13.2812 5.61719 12.8698 5.74219 12.5156 5.99219C12.1615 6.24219 11.8854 6.57031 11.6875 6.97656V13H10.2422V4.54688H11.6094ZM24.2891 13C24.2057 12.8333 24.138 12.5365 24.0859 12.1094C23.4141 12.8073 22.612 13.1562 21.6797 13.1562C20.8464 13.1562 20.1615 12.9219 19.625 12.4531C19.0938 11.9792 18.8281 11.3802 18.8281 10.6562C18.8281 9.77604 19.1615 9.09375 19.8281 8.60938C20.5 8.11979 21.4427 7.875 22.6562 7.875H24.0625V7.21094C24.0625 6.70573 23.9115 6.30469 23.6094 6.00781C23.3073 5.70573 22.862 5.55469 22.2734 5.55469C21.7578 5.55469 21.3255 5.6849 20.9766 5.94531C20.6276 6.20573 20.4531 6.52083 20.4531 6.89062H19C19 6.46875 19.1484 6.0625 19.4453 5.67188C19.7474 5.27604 20.1536 4.96354 20.6641 4.73438C21.1797 4.50521 21.7448 4.39062 22.3594 4.39062C23.3333 4.39062 24.0964 4.63542 24.6484 5.125C25.2005 5.60938 25.487 6.27865 25.5078 7.13281V11.0234C25.5078 11.7995 25.6068 12.4167 25.8047 12.875V13H24.2891ZM21.8906 11.8984C22.3438 11.8984 22.7734 11.7812 23.1797 11.5469C23.5859 11.3125 23.8802 11.0078 24.0625 10.6328V8.89844H22.9297C21.1589 8.89844 20.2734 9.41667 20.2734 10.4531C20.2734 10.9062 20.4245 11.2604 20.7266 11.5156C21.0286 11.7708 21.4167 11.8984 21.8906 11.8984ZM29.1328 4.54688L29.1719 5.48438C29.7917 4.75521 30.6276 4.39062 31.6797 4.39062C32.862 4.39062 33.6667 4.84375 34.0938 5.75C34.375 5.34375 34.7396 5.01562 35.1875 4.76562C35.6406 4.51562 36.1745 4.39062 36.7891 4.39062C38.6432 4.39062 39.5859 5.3724 39.6172 7.33594V13H38.1719V7.42188C38.1719 6.81771 38.0339 6.36719 37.7578 6.07031C37.4818 5.76823 37.0182 5.61719 36.3672 5.61719C35.8307 5.61719 35.3854 5.77865 35.0312 6.10156C34.6771 6.41927 34.4714 6.84896 34.4141 7.39062V13H32.9609V7.46094C32.9609 6.23177 32.3594 5.61719 31.1562 5.61719C30.2083 5.61719 29.5599 6.02083 29.2109 6.82812V13H27.7656V4.54688H29.1328ZM45.3125 13.1562C44.1667 13.1562 43.2344 12.7812 42.5156 12.0312C41.7969 11.276 41.4375 10.2682 41.4375 9.00781V8.74219C41.4375 7.90365 41.5964 7.15625 41.9141 6.5C42.237 5.83854 42.6849 5.32292 43.2578 4.95312C43.8359 4.57812 44.4609 4.39062 45.1328 4.39062C46.2318 4.39062 47.0859 4.7526 47.6953 5.47656C48.3047 6.20052 48.6094 7.23698 48.6094 8.58594V9.1875H42.8828C42.9036 10.0208 43.1458 10.6953 43.6094 11.2109C44.0781 11.7214 44.6719 11.9766 45.3906 11.9766C45.901 11.9766 46.3333 11.8724 46.6875 11.6641C47.0417 11.4557 47.3516 11.1797 47.6172 10.8359L48.5 11.5234C47.7917 12.612 46.7292 13.1562 45.3125 13.1562ZM45.1328 5.57812C44.5495 5.57812 44.0599 5.79167 43.6641 6.21875C43.2682 6.64062 43.0234 7.23438 42.9297 8H47.1641V7.89062C47.1224 7.15625 46.9245 6.58854 46.5703 6.1875C46.2161 5.78125 45.737 5.57812 45.1328 5.57812ZM53.875 8.69531C53.875 7.86719 54.0365 7.1224 54.3594 6.46094C54.6875 5.79948 55.1406 5.28906 55.7188 4.92969C56.3021 4.57031 56.9661 4.39062 57.7109 4.39062C58.862 4.39062 59.7917 4.78906 60.5 5.58594C61.2135 6.38281 61.5703 7.44271 61.5703 8.76562V8.86719C61.5703 9.6901 61.4115 10.4297 61.0938 11.0859C60.7812 11.737 60.3307 12.2448 59.7422 12.6094C59.1589 12.974 58.487 13.1562 57.7266 13.1562C56.5807 13.1562 55.651 12.7578 54.9375 11.9609C54.2292 11.1641 53.875 10.1094 53.875 8.79688V8.69531ZM55.3281 8.86719C55.3281 9.80469 55.5443 10.5573 55.9766 11.125C56.4141 11.6927 56.9974 11.9766 57.7266 11.9766C58.4609 11.9766 59.0443 11.6901 59.4766 11.1172C59.9089 10.5391 60.125 9.73177 60.125 8.69531C60.125 7.76823 59.9036 7.01823 59.4609 6.44531C59.0234 5.86719 58.4401 5.57812 57.7109 5.57812C56.9974 5.57812 56.4219 5.86198 55.9844 6.42969C55.5469 6.9974 55.3281 7.8099 55.3281 8.86719ZM64.0938 13V5.66406H62.7578V4.54688H64.0938V3.67969C64.0938 2.77344 64.3359 2.07292 64.8203 1.57812C65.3047 1.08333 65.9896 0.835938 66.875 0.835938C67.2083 0.835938 67.5391 0.880208 67.8672 0.96875L67.7891 2.14062C67.5443 2.09375 67.2839 2.07031 67.0078 2.07031C66.5391 2.07031 66.1771 2.20833 65.9219 2.48438C65.6667 2.75521 65.5391 3.14583 65.5391 3.65625V4.54688H67.3438V5.66406H65.5391V13H64.0938ZM8.04688 27.7031C8.04688 26.4062 8.35417 25.3646 8.96875 24.5781C9.58333 23.7865 10.388 23.3906 11.3828 23.3906C12.3724 23.3906 13.1562 23.7292 13.7344 24.4062V20H15.1797V32H13.8516L13.7812 31.0938C13.2031 31.8021 12.3984 32.1562 11.3672 32.1562C10.388 32.1562 9.58854 31.7552 8.96875 30.9531C8.35417 30.151 8.04688 29.1042 8.04688 27.8125V27.7031ZM9.49219 27.8672C9.49219 28.8255 9.6901 29.5755 10.0859 30.1172C10.4818 30.6589 11.0286 30.9297 11.7266 30.9297C12.6432 30.9297 13.3125 30.5182 13.7344 29.6953V25.8125C13.3021 25.0156 12.638 24.6172 11.7422 24.6172C11.0339 24.6172 10.4818 24.8906 10.0859 25.4375C9.6901 25.9844 9.49219 26.7943 9.49219 27.8672ZM19 32H17.5547V23.5469H19V32ZM17.4375 21.3047C17.4375 21.0703 17.5078 20.8724 17.6484 20.7109C17.7943 20.5495 18.0078 20.4688 18.2891 20.4688C18.5703 20.4688 18.7839 20.5495 18.9297 20.7109C19.0755 20.8724 19.1484 21.0703 19.1484 21.3047C19.1484 21.5391 19.0755 21.7344 18.9297 21.8906C18.7839 22.0469 18.5703 22.125 18.2891 22.125C18.0078 22.125 17.7943 22.0469 17.6484 21.8906C17.5078 21.7344 17.4375 21.5391 17.4375 21.3047ZM25.4062 24.8438C25.1875 24.8073 24.9505 24.7891 24.6953 24.7891C23.7474 24.7891 23.1042 25.1927 22.7656 26V32H21.3203V23.5469H22.7266L22.75 24.5234C23.224 23.7682 23.8958 23.3906 24.7656 23.3906C25.0469 23.3906 25.2604 23.4271 25.4062 23.5V24.8438ZM30.0938 32.1562C28.9479 32.1562 28.0156 31.7812 27.2969 31.0312C26.5781 30.276 26.2188 29.2682 26.2188 28.0078V27.7422C26.2188 26.9036 26.3776 26.1562 26.6953 25.5C27.0182 24.8385 27.4661 24.3229 28.0391 23.9531C28.6172 23.5781 29.2422 23.3906 29.9141 23.3906C31.013 23.3906 31.8672 23.7526 32.4766 24.4766C33.0859 25.2005 33.3906 26.237 33.3906 27.5859V28.1875H27.6641C27.6849 29.0208 27.9271 29.6953 28.3906 30.2109C28.8594 30.7214 29.4531 30.9766 30.1719 30.9766C30.6823 30.9766 31.1146 30.8724 31.4688 30.6641C31.8229 30.4557 32.1328 30.1797 32.3984 29.8359L33.2812 30.5234C32.5729 31.612 31.5104 32.1562 30.0938 32.1562ZM29.9141 24.5781C29.3307 24.5781 28.8411 24.7917 28.4453 25.2188C28.0495 25.6406 27.8047 26.2344 27.7109 27H31.9453V26.8906C31.9036 26.1562 31.7057 25.5885 31.3516 25.1875C30.9974 24.7812 30.5182 24.5781 29.9141 24.5781ZM38.4609 30.9766C38.9766 30.9766 39.4271 30.8203 39.8125 30.5078C40.1979 30.1953 40.4115 29.8047 40.4531 29.3359H41.8203C41.7943 29.8203 41.6276 30.2812 41.3203 30.7188C41.013 31.1562 40.6016 31.5052 40.0859 31.7656C39.5755 32.026 39.0339 32.1562 38.4609 32.1562C37.3099 32.1562 36.3932 31.7734 35.7109 31.0078C35.0339 30.237 34.6953 29.1849 34.6953 27.8516V27.6094C34.6953 26.7865 34.8464 26.0547 35.1484 25.4141C35.4505 24.7734 35.8828 24.276 36.4453 23.9219C37.013 23.5677 37.6823 23.3906 38.4531 23.3906C39.401 23.3906 40.1875 23.6745 40.8125 24.2422C41.4427 24.8099 41.7786 25.5469 41.8203 26.4531H40.4531C40.4115 25.9062 40.2031 25.4583 39.8281 25.1094C39.4583 24.7552 39 24.5781 38.4531 24.5781C37.7188 24.5781 37.1484 24.8438 36.7422 25.375C36.3411 25.901 36.1406 26.6641 36.1406 27.6641V27.9375C36.1406 28.9115 36.3411 29.6615 36.7422 30.1875C37.1432 30.7135 37.7161 30.9766 38.4609 30.9766ZM45.4062 21.5V23.5469H46.9844V24.6641H45.4062V29.9062C45.4062 30.2448 45.4766 30.5 45.6172 30.6719C45.7578 30.8385 45.9974 30.9219 46.3359 30.9219C46.5026 30.9219 46.7318 30.8906 47.0234 30.8281V32C46.6432 32.1042 46.2734 32.1562 45.9141 32.1562C45.2682 32.1562 44.7812 31.9609 44.4531 31.5703C44.125 31.1797 43.9609 30.625 43.9609 29.9062V24.6641H42.4219V23.5469H43.9609V21.5H45.4062ZM48.1406 27.6953C48.1406 26.8672 48.3021 26.1224 48.625 25.4609C48.9531 24.7995 49.4062 24.2891 49.9844 23.9297C50.5677 23.5703 51.2318 23.3906 51.9766 23.3906C53.1276 23.3906 54.0573 23.7891 54.7656 24.5859C55.4792 25.3828 55.8359 26.4427 55.8359 27.7656V27.8672C55.8359 28.6901 55.6771 29.4297 55.3594 30.0859C55.0469 30.737 54.5964 31.2448 54.0078 31.6094C53.4245 31.974 52.7526 32.1562 51.9922 32.1562C50.8464 32.1562 49.9167 31.7578 49.2031 30.9609C48.4948 30.1641 48.1406 29.1094 48.1406 27.7969V27.6953ZM49.5938 27.8672C49.5938 28.8047 49.8099 29.5573 50.2422 30.125C50.6797 30.6927 51.263 30.9766 51.9922 30.9766C52.7266 30.9766 53.3099 30.6901 53.7422 30.1172C54.1745 29.5391 54.3906 28.7318 54.3906 27.6953C54.3906 26.7682 54.1693 26.0182 53.7266 25.4453C53.2891 24.8672 52.7057 24.5781 51.9766 24.5781C51.263 24.5781 50.6875 24.862 50.25 25.4297C49.8125 25.9974 49.5938 26.8099 49.5938 27.8672ZM61.7344 24.8438C61.5156 24.8073 61.2786 24.7891 61.0234 24.7891C60.0755 24.7891 59.4323 25.1927 59.0938 26V32H57.6484V23.5469H59.0547L59.0781 24.5234C59.5521 23.7682 60.224 23.3906 61.0938 23.3906C61.375 23.3906 61.5885 23.4271 61.7344 23.5V24.8438ZM65.9766 29.8828L67.9453 23.5469H69.4922L66.0938 33.3047C65.5677 34.7109 64.7318 35.4141 63.5859 35.4141L63.3125 35.3906L62.7734 35.2891V34.1172L63.1641 34.1484C63.6536 34.1484 64.0339 34.0495 64.3047 33.8516C64.5807 33.6536 64.8073 33.2917 64.9844 32.7656L65.3047 31.9062L62.2891 23.5469H63.8672L65.9766 29.8828Z" fill="black"/>
</svg>
